<svg xmlns="http://www.w3.org/2000/svg" xmlns:xlink="http://www.w3.org/1999/xlink" version="1.1" x="0px" y="0px" viewBox="0 0 100 125" enable-background="new 0 0 100 100" xml:space="preserve"><path d="M71.53,28.833h7.512V7.001H57.223v7.516h8.998l-8.775,8.775c-3.646-2.234-7.912-3.545-12.488-3.545  c-13.235,0-24,10.763-24,23.997c0,11.953,8.792,21.866,20.242,23.673v6.692h-8.871v7.513h8.871v11.377h7.516V81.622h8.867v-7.513  h-8.867v-6.692c11.45-1.808,20.24-11.721,20.24-23.673c0-5.938-2.184-11.371-5.772-15.567l8.348-8.342V28.833z M44.957,57.727  c-7.709,0-13.981-6.274-13.981-13.983c0-7.707,6.272-13.978,13.981-13.978c7.708,0,13.979,6.271,13.979,13.978  C58.937,51.452,52.665,57.727,44.957,57.727z"/><text x="0" y="115" fill="#000000" font-size="5px" font-weight="bold" font-family="'Helvetica Neue', Helvetica, Arial-Unicode, Arial, Sans-serif">Created by Samy Menai</text></svg>