<svg xmlns="http://www.w3.org/2000/svg" data-name="Layer 1" viewBox="0 0 100 125" x="0px" y="0px"><title>30</title><g data-name="Group"><path data-name="Path" d="M47.6,35.7h4.7a1,1,0,0,0,0-2H47.6a1,1,0,0,0,0,2Z"/><path data-name="Path" d="M53.4,55.2a1,1,0,0,0-1-1H47.6a1,1,0,0,0,0,2h4.7A1,1,0,0,0,53.4,55.2Z"/><path data-name="Compound Path" d="M50,95.1a9.6,9.6,0,0,0,9.5-8.6H85.9v-2H59.5A9.6,9.6,0,0,0,51,76V67.5c14.2-.2,24.8-4.4,24.8-10V14.9c0-5.7-11.1-10-25.8-10s-25.8,4.3-25.8,10V57.5c0,5.6,10.6,9.8,24.8,10V76a9.6,9.6,0,0,0-8.5,8.5H14.1v2H40.5A9.6,9.6,0,0,0,50,95.1ZM50,6.9c14,0,23.8,4.2,23.8,8s-9.8,8-23.8,8-23.8-4.2-23.8-8S36,6.9,50,6.9Zm-23.8,12c3.8,3.6,12.8,6,23.8,6s19.9-2.4,23.8-6V35.8c0,3.8-9.8,8-23.8,8s-23.8-4.2-23.8-8Zm0,38.6V39.8c3.8,3.6,12.8,6,23.8,6s19.9-2.4,23.8-6V57.5c0,3.8-9.8,8-23.8,8S26.2,61.3,26.2,57.5ZM50,78a7.6,7.6,0,1,1-7.6,7.6A7.6,7.6,0,0,1,50,78Z"/></g></svg>