<svg xmlns="http://www.w3.org/2000/svg" xmlns:xlink="http://www.w3.org/1999/xlink" version="1.1" x="0px" y="0px" viewBox="0 0 128 160" style="enable-background:new 0 0 128 128;" xml:space="preserve"><g><path d="M64,0C28.653286,0,0,28.6543007,0,64c0,35.3467026,28.653286,64,64,64s64-28.6532974,64-64   C128,28.6543007,99.3466873,0,64,0z M16.0976849,27.9169998c2.1865005-0.3095989,11.1494007-1.7588005,20.8164005-5.8827991   c0.8465996,0.1171989,3.0400009,0.6395988,5.1015015,2.9491997l16.3857994,12.2870998   c0.1844978,0.2881012,0.3876991,0.6054993,0.6024971,0.9463005c0.0116997,0.0565987,0.0244026,0.1200981,0.035202,0.1748009   l0.0663986-0.0137024c3.1308022,4.9678001,8.9697037,14.8174019,9.8086014,18.9384995   c-0.8907013-0.222599-2.2657013-0.8456993-3.0118027-1.3642998c-1.884697-1.3115005-3.7059975-3.0565987-5.4120979-5.1865005   c-0.8105011-1.0116997-1.5311852-2.0419998-2.1092987-3.0067978c-0.0411034-0.080101-0.1026001-0.2187996-0.1797028-0.3887024   c-0.6739006-1.4794998-1.2294998-2.7011986-2.3223-3.1083984c-1.0527-0.472599-14.7294998-6.6161995-16.6132965-7.5468979   c-1.2285004-0.6064034-2.5859032-0.6142006-3.8242035-0.0195007c-1.3554993,0.6523972-2.3983841,1.9794998-2.7216988,3.4657974   c-1.0966854,5.0577011,2.0205002,10.6387024,5.6660004,13.5381012c1.4854012,1.1817017,5.6660995,4.7216988,7.2139015,6.9618988   c1.2138977,1.5860023,4.5058975,6.7764015,3.7344131,9.7206993c-0.114315,0.4394989-0.3721161,1.052803-1.2627144,1.5557022   c-0.214901-0.1308975-0.5586014-0.4922028-0.8661995-1.3358994l-0.0684013-0.1651001   c-0.3134995-0.6679001-1.9296837-3.9032974-4.2723999-4.9511032c-2.5419998-2.0019989-5.3779984-3.8574982-8.6591988-5.6679955   c-3.0694008-1.6953011-6.5615005-2.7266006-9.9384995-3.722702c-4.8457012-1.4315987-9.4238005-2.7831993-12.6768007-5.8964996   l-0.2674999-0.2568016l-5.0849996-2.1298981C8.2802858,40.5303001,11.6542854,33.8017998,16.0976849,27.9169998z    M49.5263863,25.6504002c3.2919998,0.8915997,6.0194969,1.6299,6.4774971,1.7558994   c0.3838005,0.1445007,0.8350029,0.4433002,1.0576019,1.3710003c0.1045151,0.4316998,0.344799,1.5762005,0.6328011,2.9727001   L49.5263863,25.6504002z M54.5595856,49.0264015c0.160099,0.3514977,0.2919998,0.6200981,0.3564148,0.7285004   c0.703083,1.1766968,1.528286,2.3583984,2.453083,3.5116997c0.8106003,1.0116997,1.6534004,1.9325981,2.5137024,2.7938995   c-3.7373009,0.3789978-7.0077858,2.6611977-8.6855011,5.9707985c-1.0556984-1.9716988-2.1328011-3.4218979-2.3632851-3.7216988   c-2.1289139-3.0869026-7.7207146-7.5527992-7.9580002-7.7411995c-2.6504135-2.107502-4.9629135-6.2588005-4.2481155-9.5577011   c0.0625-0.285099,0.2979012-0.5898018,0.5479012-0.7108994c0.1347008-0.0653992,0.2108994-0.0517998,0.3174019,0.0009995   c0.1366997,0.0673981,12.5409966,5.8711014,16.4383965,7.4325981   C54.1327858,48.0878983,54.4335861,48.7480011,54.5595856,49.0264015z M54.0751839,47.7910004   c0.5039024,0.1982994,0.8428154,0.3153992,0.964817,0.3251991C54.6142845,48.0966988,54.2870865,47.9403992,54.0751839,47.7910004z    M54.0624847,66.0839996c0.4580002-3.4678001,3.4365158-6.0830002,6.9258003-6.0830002   c0.3085976,0,0.6221008,0.0205002,0.9305992,0.0615005c1.8535995,0.2450981,3.5,1.1973,4.6377029,2.6806984   c1.136795,1.4843025,1.6279984,3.3213005,1.381897,5.1757011c-0.4580002,3.4667969-3.4336014,6.0820999-6.9208984,6.0820999   c-0.3085861,0-0.6231003-0.0205002-0.9335861-0.0625C56.2577858,73.4326019,53.5565834,69.9092026,54.0624847,66.0839996z    M115.6288834,94.5195007c-3.0702972,0.7206955-5.5205002,1.8076019-5.6162033,1.8496017   c-6.0595932,2.6562958-12.2763977,7.9257965-12.4872971,8.1064987c-3.8612976,3.0791016-6.6972961,0.6621017-7.2138977,0.1600952   l-0.1503983-0.1376953c-2.5742035-2.1268997-4.9697037-2.8515015-5.6200867-3.0185013   c-1.939415-0.7108994-6.3437195-2.5557022-6.3887177-2.5752029l-0.3856964-0.1171951   c-5.8408051-1.1533051-13.0703049-5.3652039-13.1425858-5.4082031l-0.2910004-0.139595   c-1.7422142-0.6739044-3.4365158-1.5733032-5.4463158-2.717804l-1.0516853-0.5917969   c-1.1729126-0.6563034-2.3838158-1.3339996-3.4737129-2.0684052c0.3731003-0.2480011,0.9062996-0.5038986,1.3339996-0.5936966   c1.4160004-0.2998047,2.9618988-0.1875,4.8691978,0.3525009l0.1943016,0.0536957   c0.339798,0.0957031,0.6348,0.177803,0.8857002,0.2823029l0.4130974,0.1210022   c1.927803,0.3457947,7.4014168,1.9902954,10.7226982,3.0205994c0.1728058,1.014595,0.6533051,2.4852982,1.9785004,3.7391968   C76.2772827,96.2753983,78.4394836,97,81.2020874,96.9990005c0.601593,0,1.2314987-0.0342026,1.8896942-0.1025009   l0.107399-0.0147018c0.7988205-0.1268997,1.6084061-0.2157974,2.4072037-0.2626953   c2-0.118103,4.0078964-0.3339005,5.9483032-0.5429001c0.8847961-0.0948029,1.7684937-0.190506,2.6503983-0.2764053   c3.0497971-0.294899,6.0839996-0.8651962,9.0165939-1.6952972c2.023407-0.5702972,3.9980011-1.3192978,5.8691025-2.2256012   c0.9942169-0.4804993,1.4102173-1.676796,0.9287033-2.6708984c-0.4804001-0.9961014-1.6797028-1.4101028-2.6708984-0.9287033   c-1.6611023,0.8037033-3.4150009,1.4687042-5.2148056,1.9756012c-2.7041016,0.7656021-5.5019989,1.2919998-8.3153992,1.5643997   c-0.8964996,0.0870056-1.7929993,0.1836014-2.6913834,0.280304c-1.8936157,0.2030945-3.8526154,0.4141006-5.7549133,0.5263977   c-0.9112015,0.0537033-1.8359985,0.1532974-2.748085,0.2977982c-2.375,0.2393036-4.1279144-0.0907974-5.0781174-0.9570007   c-0.3906021-0.3554993-0.5996017-0.7665939-0.7157974-1.1181946l0.330101-1.0576019l0.0672989-0.2919998   c0.2666016-1.732399,5.7011948-2.9736023,10.4462967-2.8896027l0.0547028,0.0009995l0.0536957-0.0029984   c2.4248199-0.0967026,7.4971008-2.1220016,8.4746017-2.5214996c3.0596008-1.2207031,7.0362167-4.1845016,7.7714996-4.743103   c5.4208984-3.0419998,11.580101,0.0703049,11.6367188,0.0996017l0.2626801,0.1387024l0.2929993,0.055603   c1.7733994,0.3378983,3.982399,0.3153992,5.635704,0.2236938   C120.4286804,85.0615005,118.3212814,89.9813995,115.6288834,94.5195007z M122.8320007,75.7792969   c-1.3183212,0.1152039-3.7881165,0.2646027-5.6123199-0.0282974c-1.5586014-0.7353973-8.6356812-3.660202-15.2987976,0.1893997   l-0.219696,0.1474991c-1.1387024,0.8768997-4.6026001,3.3554993-6.9414063,4.2891006   c-2.1718979,0.8867035-5.7792969,2.1532974-7.0927811,2.2313995c-2.162117-0.0233994-11.3399124,0.1317978-13.8311157,4.6288986   c-2.9198837-0.9052963-8.4804001-2.5917969-10.8670998-3.0585938c-0.4014015-0.1523056-0.7881012-0.260704-1.1347847-0.3574066   l-0.1807137-0.0497971c-2.555603-0.7256012-4.7129021-0.8564987-6.7842026-0.4179993   c-1.6786995,0.3535004-5.0751991,1.9951019-4.8602982,4.8086014c0.0546989,0.7372971,0.4013977,1.8134995,1.7432137,2.7597961   c1.3387871,0.9365005,2.7577858,1.7304001,4.1297874,2.4980011l1.0263977,0.5781021   c1.705101,0.9708023,3.6963005,2.0732956,5.8339996,2.9141006c1.1035004,0.6347961,7.9883003,4.5067978,14.0469017,5.7577972   c0.8935013,0.3740005,4.7109146,1.9628983,6.4881973,2.6064987l0.2314987,0.068306   c0.0195007,0.0038986,1.9453049,0.4776001,4.0371017,2.1806946c1.1777039,1.152298,3.4160004,2.4707031,6.1728973,2.4707031   c1.9248047,0,4.1035004-0.642601,6.3496017-2.4336014c0.0595016-0.0507965,6.038002-5.1132965,11.5615005-7.535202   c0.0067978-0.0028992,0.1737976-0.0760956,0.464798-0.1942978C101.5194855,113.9912033,84.8417816,123.3173981,66,123.9394989   v-7.0058975c0-1.1044998-0.8955154-2-2-2c-1.1045151,0-2,0.8955002-2,2v7.0166016   C30.5058861,122.9111023,5.0897861,97.4951019,4.050786,66h7.0156002c1.1044998,0,1.999999-0.8955002,1.999999-2   s-0.8954992-2-1.999999-2H4.050786c0.1152139-3.5019989,0.5194998-6.9325981,1.2128997-10.2598l3.8388,1.6083984   c3.9209003,3.5967026,9.0596008,5.1142998,14.0312996,6.5820999c3.3174,0.9794998,6.4502144,1.9043007,9.1386986,3.3886032   c3.1836014,1.7569008,5.9090996,3.5489006,8.3330002,5.479496l0.280201,0.222702l0.339901,0.1122971   c0.5205002,0.1719055,1.6054993,1.585907,2.2567978,2.9326019c1.1709023,3.1162033,3.2979012,3.9384995,4.7178001,3.9384995   c0.2158165,0,0.4160004-0.0195007,0.5937004-0.051796l0.4239006-0.1288986   c1.2528992-0.5371017,2.2450981-1.3096008,2.9560013-2.2723999c1.7118988,2.3055954,4.3134995,3.9461975,7.3857994,4.3524933   c0.4902,0.0654068,0.9764977,0.0967026,1.4580002,0.0967026c5.4315948,0,10.1542969-4.0243988,10.8866959-9.5576019   c0.342804-2.5859985-0.2480011-5.0781975-1.5048981-7.1464958c0.3701019-0.0781021,0.7256165-0.2012024,1.0537033-0.3985023   c0.6747971-0.4062004,1.7686005-1.4129982,1.5077972-3.6004982c-0.5800018-4.8624001-7.2890015-15.9834023-10.1805992-20.5928001   c-0.4405022-2.1991997-1.5469017-7.6885014-1.830101-8.8643017c-0.4990005-2.0721989-1.8056984-3.5741997-3.6366997-4.2147999   c-0.1269989-0.0478992-0.1366997-0.049799-16.4228973-4.4570999C38.5644836,18.0272999,36.7001839,18,36.5800858,18h-0.4160004   l-0.3809013,0.1660004c-5.9179993,2.5723-11.697298,4.0977001-15.634798,4.9424   C30.6835861,11.8192997,45.5067863,4.5946999,62,4.0507998v7.0155997c0,1.1045008,0.8954849,2,2,2c1.1044846,0,2-0.8954992,2-2   V4.0507998C97.4940872,5.0897999,122.9101791,30.5058994,123.9491806,62h-7.0155945c-1.1044998,0-2,0.8955002-2,2s0.8955002,2,2,2   h7.0155945C123.8388824,69.3339996,123.4667816,72.6025009,122.8320007,75.7792969z"/><path d="M94.8847809,33.6581993C94.5956802,33.6123009,94.2997818,33.5741997,94,33.5419998V32c0-1.1044998-0.8955154-2-2-2   c-1.1045151,0-2,0.8955002-2,2v1.5341988c-2.8437195,0.3183022-5.6279144,1.3828011-7.3896179,3.6387024   c-1.9667969,2.5223999-1.9756012,5.8934975-0.0234985,8.5858994C84.3241806,48.1641006,87.1796875,49.2089996,90,49.9491997   v8.3096008c-2.8037186-0.6318016-5.2734146-2.2178001-6.1504135-4.3516006   c-0.419899-1.0205002-1.5868988-1.5107002-2.6103058-1.0887985c-1.0214996,0.419899-1.5087967,1.5878983-1.0888977,2.6102982   c1.5088043,3.669899,5.4521027,6.2246017,9.849617,6.9482994V64c0,1.1044998,0.8954849,2,2,2c1.1044846,0,2-0.8955002,2-2   v-1.4854012c1.1435852-0.1112976,2.2802811-0.347599,3.3740005-0.7372971   c2.4120865-0.8642006,4.3066864-2.4619026,5.1972809-4.3847008c0.7002029-1.5126991,0.7588043-3.1436005,0.1641006-4.7266006   C101.3017807,48.9208984,97.5731812,47.6991997,94,46.8153992v-9.2362976   c0.0858841,0.0116997,0.1767807,0.0165977,0.2616806,0.0303001c2.6201019,0.4110985,5.1875,2.2509995,5.8438034,4.1875   c0.3554001,1.0477982,1.4961014,1.6054001,2.5361023,1.2528992c1.0468979-0.3554993,1.6074142-1.4902,1.2528992-2.5361023   C102.7470856,37.1299019,99.0410004,34.3105011,94.8847809,33.6581993z M90,45.7998009   c-1.7988129-0.535202-3.3281174-1.2168007-4.1729126-2.3857002c-0.701088-0.9678001-1.085907-2.4687996-0.0634003-3.7812996   C86.6640854,38.4804993,88.2490005,37.8476982,90,37.5839996V45.7998009z M98.9950867,54.0839996   c0.2109985,0.5625,0.1933975,1.0937004-0.0537033,1.6268997c-0.4365005,0.9434013-1.5263824,1.8027992-2.9131012,2.2998009   C95.3798828,58.2421989,94.6962814,58.3886986,94,58.4756012v-7.5214996   C96.6650009,51.6786995,98.3710861,52.455101,98.9950867,54.0839996z"/></g></svg>