<svg xmlns="http://www.w3.org/2000/svg" xmlns:xlink="http://www.w3.org/1999/xlink" version="1.1" x="0px" y="0px" viewBox="0 0 100 125" style="enable-background:new 0 0 100 100;" xml:space="preserve"><path d="M74.8,66.4V52.1c5.8,1.8,6.6,9.1,6.6,9.5l0.1,1.3l6.6-0.6L88,60.9c-0.5-4.8-3.8-14-13.2-15.6v-5.8h-6.6v5.9  c-4,0.8-7.7,2.8-10,5.4c-2.6,2.9-3.6,6.7-3.1,10.8c1,7.4,8.7,9.9,13.1,10.7v11.3c-6.4-2.1-6.5-7.4-6.5-7.6v-1.3l-6.6-0.1l0,1.3  c0,0.1,0,11.6,13.1,14.5v7h6.6V91c2.2-0.2,5.8-1,8.7-3.7c3-2.6,4.5-6.5,4.5-11.1C88,69.2,79.5,67.1,74.8,66.4z M81.4,76.3  c0,2.7-0.8,4.8-2.3,6.2c-1.1,1-2.6,1.6-4.3,1.9V73.1C78.6,73.8,81.4,75.1,81.4,76.3z M61.7,60.8L61.7,60.8c-0.3-2.3,0.2-4.1,1.5-5.6  c1.4-1.6,3.5-2.5,5-2.9v13.3C65.4,65,62,63.6,61.7,60.8z"/><rect x="26.9" y="28.2" width="26" height="6.1"/><rect x="26.7" y="74.9" width="15.1" height="6.1"/><rect x="26.7" y="59.4" width="19" height="6"/><rect x="26.8" y="44.6" width="21.6" height="5.7"/><path d="M56.8,92.1H17.5V7.3H65v17.3h17.3v14.8h5.6V18.3L71.3,1.7H11.9v95.9h44.9V92.1z M69.5,6.6L82.9,20H69.5V6.6z  "/></svg>