<svg xmlns="http://www.w3.org/2000/svg" xmlns:xlink="http://www.w3.org/1999/xlink" version="1.1" x="0px" y="0px" viewBox="0 0 64 80" style="enable-background:new 0 0 64 64;" xml:space="preserve"><path d="M11.5,40c-0.276,0-0.5-0.224-0.5-0.5v-11c0-0.276,0.224-0.5,0.5-0.5s0.5,0.224,0.5,0.5v11C12,39.776,11.776,40,11.5,40z"/><path d="M11.5,26c-0.276,0-0.5-0.224-0.5-0.5v-11c0-0.276,0.224-0.5,0.5-0.5s0.5,0.224,0.5,0.5v11C12,25.776,11.776,26,11.5,26z"/><path d="M11.5,12c-0.276,0-0.5-0.224-0.5-0.5v-10C11,1.224,11.224,1,11.5,1h44C55.776,1,56,1.224,56,1.5v7C56,8.776,55.776,9,55.5,9  S55,8.776,55,8.5V2H12v9.5C12,11.776,11.776,12,11.5,12z"/><path d="M55.5,53h-44c-0.276,0-0.5-0.224-0.5-0.5v-10c0-0.276,0.224-0.5,0.5-0.5s0.5,0.224,0.5,0.5V52h43V21.5  c0-0.276,0.224-0.5,0.5-0.5s0.5,0.224,0.5,0.5v31C56,52.776,55.776,53,55.5,53z"/><path d="M13,43h-3c-1.103,0-2-0.897-2-2s0.897-2,2-2h3c1.103,0,2,0.897,2,2S14.103,43,13,43z M10,40c-0.551,0-1,0.449-1,1  s0.449,1,1,1h3c0.551,0,1-0.449,1-1s-0.449-1-1-1H10z"/><path d="M13,29h-3c-1.103,0-2-0.897-2-2s0.897-2,2-2h3c1.103,0,2,0.897,2,2S14.103,29,13,29z M10,26c-0.551,0-1,0.449-1,1  s0.449,1,1,1h3c0.551,0,1-0.449,1-1s-0.449-1-1-1H10z"/><path d="M13,15h-3c-1.103,0-2-0.897-2-2s0.897-2,2-2h3c1.103,0,2,0.897,2,2S14.103,15,13,15z M10,12c-0.551,0-1,0.449-1,1  s0.449,1,1,1h3c0.551,0,1-0.449,1-1s-0.449-1-1-1H10z"/><path d="M50.5,59c-0.025,0-0.051-0.002-0.076-0.006l-39-6c-0.273-0.042-0.46-0.297-0.418-0.57s0.296-0.46,0.57-0.418L50,57.917V52.5  c0-0.276,0.224-0.5,0.5-0.5s0.5,0.224,0.5,0.5v6c0,0.146-0.063,0.285-0.174,0.379C50.734,58.958,50.619,59,50.5,59z"/><path d="M43.5,63c-0.05,0-0.1-0.007-0.149-0.023l-32-10c-0.264-0.082-0.411-0.363-0.328-0.626c0.082-0.264,0.364-0.412,0.626-0.328  L43,61.82v-4.397c0-0.276,0.224-0.5,0.5-0.5s0.5,0.224,0.5,0.5V62.5c0,0.159-0.076,0.309-0.204,0.403  C43.709,62.967,43.605,63,43.5,63z"/><path d="M40.502,26H26.498C24.569,26,23,24.431,23,22.502v-8.005C23,12.569,24.569,11,26.498,11h14.005  C42.431,11,44,12.569,44,14.498v8.005C44,24.431,42.431,26,40.502,26z M26.498,12C25.121,12,24,13.121,24,14.498v8.005  C24,23.879,25.121,25,26.498,25h14.005C41.879,25,43,23.879,43,22.502v-8.005C43,13.121,41.879,12,40.502,12H26.498z"/><path d="M43.5,32h-20c-0.276,0-0.5-0.224-0.5-0.5s0.224-0.5,0.5-0.5h20c0.276,0,0.5,0.224,0.5,0.5S43.776,32,43.5,32z"/><path d="M43.5,36h-20c-0.276,0-0.5-0.224-0.5-0.5s0.224-0.5,0.5-0.5h20c0.276,0,0.5,0.224,0.5,0.5S43.776,36,43.5,36z"/><path d="M48.5,47h-4c-0.827,0-1.5-0.673-1.5-1.5s0.673-1.5,1.5-1.5h4c0.827,0,1.5,0.673,1.5,1.5S49.327,47,48.5,47z M44.5,45  c-0.276,0-0.5,0.224-0.5,0.5s0.224,0.5,0.5,0.5h4c0.276,0,0.5-0.224,0.5-0.5S48.776,45,48.5,45H44.5z"/><path d="M55.5,17c-0.276,0-0.5-0.224-0.5-0.5v-5c0-0.276,0.224-0.5,0.5-0.5s0.5,0.224,0.5,0.5v5C56,16.776,55.776,17,55.5,17z"/></svg>