<svg xmlns="http://www.w3.org/2000/svg" xmlns:xlink="http://www.w3.org/1999/xlink" version="1.1" x="0px" y="0px" viewBox="0 0 100 125" enable-background="new 0 0 100 100" xml:space="preserve"><path fill="#000000" d="M54,5.128v11.084c19,0.47,33.104,15.354,33.104,33.66c0,18.602-14.928,33.681-33.53,33.681  c-10.808,0-20.345-5.096-26.505-13.01C23.756,65.988,21.676,60,20.94,55h8.614L14.777,29.4L0,55h9.05  c2.146,23,21.656,41.383,45.422,41.383c25.201,0,45.327-20.428,45.327-45.629C99.798,25.598,79,5.202,54,5.128z"/><polygon fill="#000000" points="58,47 58,30 51,30 51,47.424 51,54 57.668,54 75,54 75,47 "/></svg>