<svg xmlns="http://www.w3.org/2000/svg" xmlns:xlink="http://www.w3.org/1999/xlink" version="1.1" x="0px" y="0px" viewBox="0 0 100 125" style="enable-background:new 0 0 100 100;" xml:space="preserve"><g><rect x="67" y="82" width="12" height="12"/><path d="M73.1,32c2.7-0.1,4.9-2.3,4.9-5c0-2-1.3-3.8-3.1-4.6s-4-0.3-5.4,1.2c-1.4,1.5-1.8,3.6-1,5.5C69.2,30.9,71.1,32,73.1,32z"/><polygon points="92,51 94,49 79,34 69,34 67,34 51,34 51,37 67,39.7 67,52 66,81 70,81 73,58 76,81 80,81 79,52 79,42.3  "/><path d="M27.1,32c2.7-0.1,4.9-2.3,4.9-5c0-2-1.3-3.8-3.1-4.6s-4-0.3-5.4,1.2c-1.4,1.5-1.8,3.6-1,5.5C23.2,30.9,25.1,32,27.1,32z"/><polygon points="31,34 21,34 6,48 8,50 21,41.9 21,58 15,94 19,94 27,63 35,94 39,94 33,58 33,39.7 49,37 49,34 33,34  "/></g></svg>