<svg xmlns="http://www.w3.org/2000/svg" xmlns:xlink="http://www.w3.org/1999/xlink" version="1.1" x="0px" y="0px" viewBox="0 0 70 87.5" style="enable-background:new 0 0 70 70;" xml:space="preserve"><path d="M34.4951172,42.5012817c8.425293,0,15.2797852-6.8544922,15.2797852-15.2792969  c0-8.4257812-6.8544922-15.2802734-15.2797852-15.2802734S19.215332,18.7962036,19.215332,27.2219849  C19.215332,35.6467896,26.0698242,42.5012817,34.4951172,42.5012817z M34.4951172,13.9417114  c7.3222656,0,13.2797852,5.9570312,13.2797852,13.2802734c0,7.3222656-5.9575195,13.2792969-13.2797852,13.2792969  S21.215332,34.5442505,21.215332,27.2219849C21.215332,19.8987427,27.1728516,13.9417114,34.4951172,13.9417114z"/><path d="M27.8969727,35.6897583c-0.0639648,0.375,0.090332,0.7539062,0.3979492,0.9775391  c0.1743164,0.1269531,0.3808594,0.1914062,0.5878906,0.1914062c0.1591797,0,0.3188477-0.0380859,0.465332-0.1152344  l5.1469727-2.7060547l5.1474609,2.7060547c0.3374023,0.1787109,0.7456055,0.1494141,1.0532227-0.0761719  c0.3076172-0.2236328,0.4619141-0.6025391,0.3979492-0.9775391l-0.9829102-5.7314453l4.1635742-4.0595703  c0.2729492-0.265625,0.3710938-0.6630859,0.253418-1.0244141c-0.1176758-0.3623047-0.4306641-0.6259766-0.8071289-0.6806641  l-5.7553711-0.8369141l-2.5732422-5.2138672c-0.3378906-0.6835938-1.4560547-0.6835938-1.7939453,0l-2.5732422,5.2138672  l-5.7553711,0.8369141c-0.3764648,0.0546875-0.6894531,0.3183594-0.8071289,0.6806641  c-0.1176758,0.3613281-0.0195312,0.7587891,0.253418,1.0244141l4.1640625,4.0595703L27.8969727,35.6897583z M27.5625,25.8811646  l4.2705078-0.6210938c0.3256836-0.046875,0.6069336-0.2519531,0.7524414-0.546875l1.909668-3.8681641l1.909668,3.8681641  c0.1455078,0.2949219,0.4267578,0.5,0.7524414,0.546875l4.2705078,0.6210938l-3.0893555,3.0117188  c-0.2358398,0.2294922-0.3432617,0.5605469-0.2880859,0.8847656l0.7294922,4.2529297l-3.8193359-2.0078125  c-0.1455078-0.0771484-0.3056641-0.1152344-0.465332-0.1152344s-0.3198242,0.0380859-0.465332,0.1152344l-3.8188477,2.0078125  l0.7294922-4.2529297c0.0551758-0.3242188-0.0522461-0.6552734-0.2880859-0.8847656L27.5625,25.8811646z"/><path d="M6.2988281,61.2669067l6.9755859-0.4794922l2.4331055,6.5615234  c0.1313477,0.3544922,0.4521484,0.6054688,0.8286133,0.6464844c0.0366211,0.0039062,0.0727539,0.0058594,0.1088867,0.0058594  c0.3369141,0,0.6547852-0.1699219,0.8398438-0.4570312l9.758728-15.1066895  c1.3812256-0.0383301,2.7617188-1.0774536,4.1050415-2.0925293c1.0908203-0.8251953,2.3266602-1.7607422,3.1464844-1.7607422  s2.0561523,0.9355469,3.1474609,1.7607422c1.6357422,1.2363281,3.3271484,2.5126953,5.0053711,1.9697266  c0.0076904-0.0025024,0.0136719-0.0073242,0.0213623-0.0098877l9.8463135,15.2393799  c0.1855469,0.2871094,0.5029297,0.4570312,0.8398438,0.4570312c0.0361328,0,0.0722656-0.0019531,0.1088867-0.0058594  c0.3764648-0.0410156,0.6972656-0.2919922,0.8286133-0.6464844l2.4331055-6.5615234l6.9750977,0.4794922  c0.3793945,0.0117188,0.7373047-0.1640625,0.9296875-0.4902344c0.1923828-0.3251953,0.184082-0.7324219-0.0209961-1.0498047  L54.3206787,43.7866821c0.607605-0.2070312,1.1328125-0.5324707,1.5147705-1.0568848  c1.0561523-1.4521484,0.355957-3.4765625-0.3212891-5.4345703c-0.440918-1.2734375-0.9404297-2.7177734-0.6962891-3.4697266  c0.2250977-0.6933594,1.4414062-1.5361328,2.5146484-2.2802734c1.7407227-1.2080078,3.5410156-2.4560547,3.5410156-4.3232422  s-1.800293-3.1162109-3.5415039-4.3242188c-1.0732422-0.7441406-2.2890625-1.5869141-2.5141602-2.2802734  c-0.2441406-0.7519531,0.2553711-2.1962891,0.6962891-3.4707031c0.6767578-1.9570312,1.3769531-3.9814453,0.3212891-5.4335938  c-1.0668945-1.4648438-3.2226562-1.4208984-5.3071289-1.3798828c-1.3364258,0.0273438-2.8535156,0.0566406-3.4770508-0.3964844  c-0.609375-0.4433594-1.0429688-1.8818359-1.4248047-3.1503906c-0.605957-2.0117188-1.2324219-4.0917969-2.9785156-4.6582031  c-1.6787109-0.5458984-3.3706055,0.7333984-5.0058594,1.9707031c-1.0908203,0.8251953-2.3271484,1.7607422-3.1469727,1.7607422  s-2.0561523-0.9355469-3.1469727-1.7607422c-1.6352539-1.2363281-3.3251953-2.5146484-5.0063477-1.9707031  c-1.7456055,0.5673828-2.3720703,2.6474609-2.9780273,4.6582031c-0.3818359,1.2685547-0.8154297,2.7070312-1.4248047,3.1503906  c-0.6240234,0.4550781-2.1401367,0.421875-3.4775391,0.3974609c-2.0844727-0.0449219-4.2402344-0.0849609-5.3066406,1.3798828  c-1.0556641,1.4511719-0.355957,3.4746094,0.3212891,5.4326172c0.440918,1.2744141,0.940918,2.71875,0.6962891,3.4716797  c-0.2246094,0.6923828-1.440918,1.5351562-2.5136719,2.2792969c-1.7412109,1.2080078-3.5419922,2.4570312-3.5419922,4.3242188  s1.800293,3.1152344,3.5410156,4.3222656c1.0732422,0.7441406,2.2895508,1.5878906,2.5146484,2.28125  c0.2446289,0.7529297-0.2553711,2.1972656-0.6962891,3.4716797c-0.6767578,1.9570312-1.3769531,3.9814453-0.3208008,5.4316406  c0.5559082,0.7640991,1.4105835,1.1147461,2.3939209,1.2731934L5.390625,59.7258911  c-0.2055664,0.3183594-0.2138672,0.7246094-0.0214844,1.0507812C5.5610352,61.1028442,5.9140625,61.2815552,6.2988281,61.2669067z   M61.847168,59.1340942l-5.7304688-0.3935547c-0.4365234-0.0185547-0.8515625,0.234375-1.0058594,0.6503906l-1.9990234,5.390625  L44.241333,51.0522461c0.6350098-0.9190063,1.0158081-2.1680298,1.3856201-3.3956909  c0.3823242-1.2685547,0.8154297-2.7070312,1.4248047-3.1503906c0.6235352-0.453125,2.1396484-0.4248047,3.4770508-0.3964844  c0.543396,0.0106812,1.0904541,0.0199585,1.6227417,0.0043335L61.847168,59.1340942z M15.3662109,37.9514771  c0.5703125-1.6484375,1.1601562-3.3535156,0.7084961-4.7431641c-0.4331055-1.3349609-1.8144531-2.2929688-3.2768555-3.3076172  c-1.2568359-0.8710938-2.6811523-1.8583984-2.6811523-2.6787109s1.4248047-1.8085938,2.6821289-2.6806641  c1.4619141-1.0136719,2.8427734-1.9716797,3.2758789-3.3056641c0.4516602-1.3896484-0.1381836-3.0947266-0.7084961-4.7431641  c-0.4614258-1.3339844-1.0356445-2.9941406-0.5942383-3.6015625c0.4526367-0.6220703,2.2246094-0.5849609,3.6494141-0.5576172  c1.7324219,0.0341797,3.5258789,0.0703125,4.6943359-0.7792969c1.1538086-0.8398438,1.6669922-2.5429688,2.1630859-4.1904297  c0.4145508-1.3759766,0.9306641-3.0888672,1.6806641-3.3330078c0.6933594-0.2167969,2.0712891,0.8232422,3.1821289,1.6630859  c1.4072266,1.0654297,2.862793,2.1660156,4.3535156,2.1660156s2.9462891-1.1005859,4.3535156-2.1660156  c1.1103516-0.8388672,2.4916992-1.8867188,3.1821289-1.6630859c0.75,0.2431641,1.2661133,1.9560547,1.6806641,3.3330078  c0.4960938,1.6474609,1.0092773,3.3505859,2.1630859,4.1904297c1.168457,0.8505859,2.9628906,0.8144531,4.6938477,0.7792969  c1.4248047-0.0322266,3.1972656-0.0644531,3.6499023,0.5566406c0.4418945,0.6074219-0.1328125,2.2685547-0.5942383,3.6035156  c-0.5703125,1.6474609-1.159668,3.3515625-0.7084961,4.7412109c0.4335938,1.3349609,1.8144531,2.2929688,3.2763672,3.3066406  c1.2568359,0.8720703,2.6816406,1.8603516,2.6816406,2.6806641s-1.4243164,1.8076172-2.6811523,2.6796875  c-1.4619141,1.0136719-2.8432617,1.9716797-3.2768555,3.3066406c-0.4511719,1.3896484,0.1381836,3.0927734,0.7084961,4.7412109  c0.4614258,1.3349609,1.0361328,2.9960938,0.5942383,3.6025391c-0.4526367,0.6220703-2.2250977,0.5878906-3.6494141,0.5576172  c-1.7314453-0.0332031-3.5253906-0.0712891-4.6943359,0.7792969c-1.1533203,0.8398438-1.6665039,2.5429688-2.1625977,4.1904297  c-0.4145508,1.3769531-0.9306641,3.0898438-1.6811523,3.3330078c-0.6806641,0.2216797-2.0703125-0.8212891-3.1821289-1.6630859  c-1.4072266-1.0644531-2.862793-2.1650391-4.3535156-2.1650391s-2.9458008,1.1005859-4.3530273,2.1650391  c-1.1113281,0.8408203-2.4892578,1.8808594-3.1821289,1.6630859c-0.75-0.2431641-1.2661133-1.9560547-1.6806641-3.3320312  c-0.496582-1.6474609-1.0097656-3.3505859-2.1635742-4.1904297c-0.9350586-0.6806641-2.2705078-0.7929688-3.6552734-0.7929688  c-0.3452148,0-0.6933594,0.0068359-1.0385742,0.0136719c-1.425293,0.0273438-3.1967773,0.0644531-3.6494141-0.5585938  C14.3305664,40.9456177,14.9047852,39.2854614,15.3662109,37.9514771z M17.8538818,44.1205444  c0.2026978-0.0029297,0.4055786-0.0064087,0.6080322-0.0108643c1.3388672-0.0253906,2.8530273-0.0576172,3.4770508,0.3974609  c0.609375,0.4433594,1.0429688,1.8818359,1.425293,3.1503906c0.4699097,1.5593872,0.9590454,3.1513062,1.9660645,4.0557251  l-8.4416504,13.0682983l-1.9990234-5.390625c-0.1538086-0.4160156-0.5688477-0.6708984-1.0058594-0.6503906l-5.7299805,0.3935547  L17.8538818,44.1205444z"/></svg>