<svg xmlns="http://www.w3.org/2000/svg" xmlns:xlink="http://www.w3.org/1999/xlink" version="1.0" x="0px" y="0px" viewBox="0 0 100 125" enable-background="new 0 0 100 100" xml:space="preserve"><g><defs><rect id="b" width="100" height="100"/></defs><clipPath id="a"><use xlink:href="#b" overflow="visible"/></clipPath><path clip-path="url(#a)" d="M71.728,30.611c0-5.307-4.312-9.625-9.611-9.625c-0.947,0-1.873,0.135-2.764,0.402   C58.35,17.098,54.529,14,50,14c-4.538,0-8.364,3.097-9.368,7.387c-0.887-0.266-1.808-0.401-2.749-0.401   c-5.3,0-9.611,4.318-9.611,9.625c0,2.651,1.112,5.184,3.023,6.994c-1.912,1.79-3.023,4.32-3.023,6.99   c0,3.99,2.445,7.417,5.915,8.87V85c0,0.446,0.297,0.834,0.726,0.957c0.327,0.096,0.673,0.012,0.924-0.201L50,74.329l14.109,11.378   C64.301,85.898,64.557,86,64.816,86c0.129,0,0.259-0.024,0.383-0.076c0.374-0.154,0.617-0.52,0.617-0.924V53.463   c3.468-1.452,5.911-4.879,5.911-8.868c0-2.669-1.111-5.2-3.022-6.99C70.616,35.795,71.728,33.262,71.728,30.611 M50,47.043   c-5.206,0-9.441-4.235-9.441-9.44c0-5.206,4.235-9.442,9.441-9.442s9.441,4.236,9.441,9.442C59.441,42.808,55.206,47.043,50,47.043   "/></g></svg>