<svg xmlns="http://www.w3.org/2000/svg" xmlns:xlink="http://www.w3.org/1999/xlink" version="1.1" x="0px" y="0px" viewBox="0 0 1024 1280" style="enable-background:new 0 0 1024 1024;" xml:space="preserve"><g><g><path d="M197.1,191.6C131.4,257.5,86.6,343.1,71.3,435c-15.1,90.3-2.8,183.7,35.8,266.8    c39.7,85.7,107.3,158.1,189.8,204c79.6,44.3,172.4,63.7,263,54.8c92.6-9.1,180.7-46.5,251.3-107.2c70.7-60.8,121.7-143.4,144-234    c21.6-88,16.4-182.4-15.6-267.3c-33.5-88.9-94.9-165.8-174.1-218.3c-76.2-50.5-167.8-76.6-259.2-74.5    C414.5,61.6,324,91.9,250,146.3C231.3,160.1,213.6,175.2,197.1,191.6c-9.1,9.1,5,23.2,14.1,14.1C274.9,142.3,357.1,99.9,445.9,85    c85-14.2,174.6-2.2,252.7,34.3c82.3,38.4,151.4,102.7,195.5,182c42.4,76.3,60.4,164.7,52.2,251.5    c-8.3,87.5-44.2,171.9-101.5,238.5c-58.7,68.3-137.6,117.3-225.2,138.8c-84.3,20.7-174,15.2-255.3-15.1    c-84.7-31.7-158.7-91.1-208.4-166.6c-48.2-73.2-73-160.3-71-247.9c2-87.9,31.4-173.9,83.3-244.9c13-17.8,27.5-34.4,43.1-50.1    C220.3,196.6,206.2,182.5,197.1,191.6z"/></g></g><g><g><path d="M484.5,479c-13.3,13.9-16.9,34-8.8,51.6c7.7,16.7,26.5,27.4,44.8,25.4c18.7-2,35-15.1,39.7-33.6    c4.8-18.7-3-38.2-18.8-49.1C523.8,461.1,499.7,464.5,484.5,479c-9.3,8.9,4.9,23.1,14.1,14.1c16.7-16.1,45.4-3,43,20.6    c-2.3,22.7-33.1,30.6-46,11.6c-6.9-10.2-5.5-23.4,3-32.2C507.6,483.9,493.5,469.7,484.5,479z"/></g></g><g><g><path d="M265.1,774.8c12.1-4.9,24.2-9.8,36.2-14.8c28.9-11.8,57.9-23.6,86.8-35.4c35-14.3,69.9-28.5,104.9-42.8    c29.7-12.1,59.4-24.2,89.1-36.3c13.6-5.5,27.3-11,40.8-16.6c6-2.5,7.5-7.8,9.7-13.2c3.2-7.6,6.3-15.3,9.5-22.9    c11.4-27.4,22.7-54.8,34.1-82.2c14.4-34.7,28.8-69.5,43.2-104.2c12.9-31.1,25.8-62.2,38.7-93.4c7-17,14.1-34,21.1-51    c0.3-0.8,0.7-1.6,1-2.4c2.8-6.7-5.6-15.1-12.3-12.3c-11.9,4.9-23.8,9.9-35.7,14.8c-28.6,11.9-57.3,23.7-85.9,35.6    c-34.9,14.5-69.8,28.9-104.7,43.4c-30.1,12.5-60.3,25-90.4,37.5c-14.9,6.2-29.8,12.3-44.7,18.5c-5.8,2.4-7.4,6.5-9.5,11.6    c-2.9,7-5.7,14-8.6,21.1c-10.9,26.8-21.8,53.6-32.7,80.3c-14.2,34.7-28.3,69.5-42.5,104.2c-12.8,31.4-25.6,62.8-38.4,94.2    c-7,17.2-14,34.4-21.1,51.6c-0.3,0.8-0.7,1.6-1,2.4c-2,5,2.2,11,7,12.3c5.7,1.6,10.3-2,12.3-7c4.8-11.9,9.7-23.8,14.5-35.7    c11.6-28.5,23.3-57.1,34.9-85.6c14-34.4,28-68.7,42-103.1c12.2-29.9,24.3-59.7,36.5-89.6c4-9.8,8-19.6,12-29.4    c1.9-4.7,4.2-9.3,5.8-14.1c0.1-0.2,0.2-0.4,0.3-0.6c-2.3,2.3-4.7,4.7-7,7c12-5,24-10,36-14.9c28.8-12,57.7-23.9,86.5-35.9    c34.9-14.5,69.8-28.9,104.7-43.4c30.2-12.5,60.3-25,90.5-37.5c9.9-4.1,19.7-8.2,29.6-12.3c4.7-1.9,9.8-3.6,14.3-5.9    c0.2-0.1,0.4-0.2,0.6-0.3c-4.1-4.1-8.2-8.2-12.3-12.3c-5,12-10,24-14.9,36c-12,28.8-23.9,57.7-35.9,86.5    c-14.5,34.9-28.9,69.8-43.4,104.7c-12.5,30.2-25,60.3-37.5,90.5c-4.1,9.9-8.2,19.7-12.3,29.6c-2,4.7-4.3,9.4-5.9,14.3    c-0.1,0.2-0.2,0.4-0.3,0.6c2.3-2.3,4.7-4.7,7-7c-11.9,4.8-23.8,9.7-35.7,14.5c-28.5,11.6-57.1,23.3-85.6,34.9    c-34.4,14-68.7,28-103.1,42c-29.9,12.2-59.7,24.3-89.6,36.5c-14.5,5.9-29.1,11.8-43.6,17.8c-0.2,0.1-0.4,0.2-0.6,0.3    c-5,2-8.5,6.7-7,12.3C254.1,772.5,260.1,776.8,265.1,774.8z"/></g></g></svg>