<svg xmlns="http://www.w3.org/2000/svg" xmlns:xlink="http://www.w3.org/1999/xlink" version="1.1" x="0px" y="0px" viewBox="0 0 100 125" style="enable-background:new 0 0 100 100;" xml:space="preserve"><g><path d="M84.8,26.91c-0.31-0.99-1.09-1.76-2.08-2.06L64.7,19.37c-1.11-0.34-2.31-0.04-3.14,0.79L23.69,58.03   c-0.59,0.59-0.92,1.38-0.92,2.22s0.33,1.63,0.92,2.22l23.84,23.84c0.59,0.59,1.38,0.92,2.22,0.92s1.63-0.33,2.22-0.92l37.87-37.87   c0.83-0.83,1.13-2.05,0.77-3.17L84.8,26.91z M70.76,44.74c-3.03,0-5.5-2.47-5.5-5.5s2.47-5.5,5.5-5.5s5.5,2.47,5.5,5.5   S73.79,44.74,70.76,44.74z"/><path d="M19.26,60.25c0-1.77,0.69-3.44,1.95-4.7L56.67,20.1c-0.56-0.01-1.12,0.14-1.63,0.43L8.85,47.67   c-0.72,0.43-1.24,1.11-1.45,1.92c-0.21,0.81-0.09,1.66,0.33,2.38l17.08,29.07c0.43,0.72,1.11,1.24,1.92,1.45   c0.26,0.07,0.53,0.1,0.8,0.1c0.55,0,1.1-0.15,1.59-0.43l5.86-3.44L21.21,64.95C19.96,63.7,19.26,62.03,19.26,60.25z"/></g></svg>