<svg xmlns="http://www.w3.org/2000/svg" xmlns:xlink="http://www.w3.org/1999/xlink" version="1.1" x="0px" y="0px" viewBox="0 0 64 80" style="enable-background:new 0 0 64 64;" xml:space="preserve"><g><path d="M63.0115891,38.9618378h-11.66782c0-2.5667877-0.3401108-5.0606308-1.0121269-7.586895   c-0.0324173-0.1295795-0.0728455-0.2591095-0.113369-0.388689c2.2834129-3.3926487,4.6233597-6.8662491,6.8743553-10.2345829   C60.8172302,25.8608818,63.0115891,32.1603279,63.0115891,38.9618378z"/><path d="M50.906498,14.3873825c-2.0161476,2.1376228-4.0970345,4.3400345-6.1618118,6.5342922   c-1.1336021-1.2388153-2.4372063-2.3643131-3.8947105-3.3359642C38.283287,15.8853588,35.2388039,14.7517576,32,14.3712215   c-1.6275063-0.202425-3.2712231-0.2510052-4.9311504-0.1295795c-1.6517239,0.1214752-3.3277607,0.3724804-4.9714775,0.8178062   c-1.6518211,0.4372206-3.2793293,1.0444965-4.8582058,1.8218269c-1.562767,0.7773304-3.0769033,1.7327728-4.4938803,2.8339539   c-2.809639,2.2266769-5.1820078,5.1415825-6.777194,8.4694901c-1.6112971,3.3197556-2.445214,7.0444107-2.445214,10.7771187   h-2.534467C0.9884109,21.8366413,14.8666983,7.9502983,32,7.9502983   C39.1091995,7.9502983,45.6677589,10.346982,50.906498,14.3873825z"/><path d="M56.0930557,14.8791199c-0.7634048-0.6102667-1.8052025-0.5371256-2.4767227,0.1743946   C42.7563324,26.5628643,24.3784027,46.0705872,23.3087215,47.4113464c-0.8868294,1.1099091-1.288187,2.4991226-1.1295643,3.9107323   c0.1581669,1.4120712,0.8566589,2.6778603,1.9665661,3.5642319c0.9517422,0.7602043,2.1082764,1.1633911,3.3086948,1.1633911   c0.1997662,0,0.4009018-0.0109711,0.6024952-0.0338287c1.4120693-0.158165,2.6778584-0.8566589,3.56423-1.9670219h0.0004578   c1.0733376-1.3444138,16.0296631-23.5805111,24.849041-36.7154083   C57.015995,16.5215816,56.8573723,15.4893866,56.0930557,14.8791199z M29.7926311,52.5887833   c-0.4968987,0.6216927-1.2054482,1.0125389-1.9962807,1.101223c-0.7903748,0.0900536-1.5684071-0.1357689-2.1901016-0.6322098   c-0.6216946-0.4968987-1.0129967-1.2054482-1.101223-1.9962807c-0.0886822-0.7903748,0.135767-1.5679512,0.6326656-2.1901016   c0.6843224-0.8575706,10.0732803-10.88834,25.9603195-27.7371788   C38.1841354,40.3526001,30.4792366,51.7280083,29.7926311,52.5887833z"/><circle cx="27.4648037" cy="50.7301216" r="2.1061976"/></g></svg>