<svg xmlns="http://www.w3.org/2000/svg" xmlns:xlink="http://www.w3.org/1999/xlink" version="1.1" x="0px" y="0px" viewBox="0 0 512 640" style="enable-background:new 0 0 512 512;" xml:space="preserve"><g><path d="M136.6,12.9H16.9c-2.2,0-4,1.8-4,4v119.7c0,2.2,1.8,4,4,4h119.7c2.2,0,4-1.8,4-4V16.9C140.6,14.7,138.9,12.9,136.6,12.9z    M132.6,132.6H20.9V20.9h111.7L132.6,132.6L132.6,132.6z"/><path d="M316.2,12.9H196.5c-2.2,0-4,1.8-4,4v119.7c0,2.2,1.8,4,4,4h119.7c2.2,0,4-1.8,4-4V16.9C320.2,14.7,318.4,12.9,316.2,12.9z    M312.2,132.6H200.5V20.9h111.7V132.6z"/><path d="M316.2,192.5H196.5c-2.2,0-4,1.8-4,4v119.7c0,2.2,1.8,4,4,4h119.7c2.2,0,4-1.8,4-4V196.5   C320.2,194.3,318.4,192.5,316.2,192.5z M312.2,312.2H200.5V200.5h111.7V312.2z"/><path d="M495.8,12.9H376.1c-2.2,0-4,1.8-4,4v119.7c0,2.2,1.8,4,4,4h119.7c2.2,0,4-1.8,4-4V16.9C499.8,14.7,498,12.9,495.8,12.9z    M491.8,132.6H380.1V20.9h111.7V132.6z"/><path d="M316.2,372.1H196.5c-2.2,0-4,1.8-4,4v119.7c0,2.2,1.8,4,4,4h119.7c2.2,0,4-1.8,4-4V376.1   C320.2,373.9,318.4,372.1,316.2,372.1z M312.2,491.8H200.5V380.1h111.7V491.8z"/><path d="M136.6,192.5H16.9c-2.2,0-4,1.8-4,4v119.7c0,2.2,1.8,4,4,4h119.7c2.2,0,4-1.8,4-4V196.5   C140.6,194.3,138.9,192.5,136.6,192.5z M132.6,312.2H20.9V200.5h111.7L132.6,312.2L132.6,312.2z"/><path d="M136.6,372.1H16.9c-2.2,0-4,1.8-4,4v119.7c0,2.2,1.8,4,4,4h119.7c2.2,0,4-1.8,4-4V376.1   C140.6,373.9,138.9,372.1,136.6,372.1z M132.6,491.8H20.9V380.1h111.7L132.6,491.8L132.6,491.8z"/><path d="M495.8,192.5H376.1c-2.2,0-4,1.8-4,4v119.7c0,2.2,1.8,4,4,4h119.7c2.2,0,4-1.8,4-4V196.5   C499.8,194.3,498,192.5,495.8,192.5z M491.8,312.2H380.1V200.5h111.7V312.2z"/><path d="M495.8,372.1H376.1c-2.2,0-4,1.8-4,4v119.7c0,2.2,1.8,4,4,4h119.7c2.2,0,4-1.8,4-4V376.1   C499.8,373.9,498,372.1,495.8,372.1z M491.8,491.8H380.1V380.1h111.7V491.8z"/></g></svg>