<svg xmlns="http://www.w3.org/2000/svg" xmlns:xlink="http://www.w3.org/1999/xlink" width="96" height="96" viewBox="0 0 96 96">
  <defs>
    <clipPath id="clip-Budget_96">
      <rect width="96" height="96"/>
    </clipPath>
  </defs>
  <g id="Budget_96" data-name="Budget 96" clip-path="url(#clip-Budget_96)">
    <rect width="96" height="96" fill="#fff"/>
    <g id="Budget" transform="translate(-63.628 -331.925)">
      <g id="Group_16" data-name="Group 16" transform="translate(63.924 338.183)">
        <path id="Subtraction_9" data-name="Subtraction 9" d="M95.705,83.744H0V0H95.705V83.743ZM65.8,59.817V77.761H89.724V59.817Zm-29.908,0V77.761H59.816V59.817h-8.41V56.259A9.083,9.083,0,0,0,56.4,53.834h3.421V35.89H45.23a2.982,2.982,0,0,1-.047-.534,2.747,2.747,0,0,1,1.254-2.318,5.451,5.451,0,0,1,3.236-.9,6.984,6.984,0,0,1,1.785.24,9.424,9.424,0,0,1,1.556.543,10.882,10.882,0,0,1,1.221.668c.378.241.652.427.814.553s.263.211.3.251a.707.707,0,0,0,.43.16.635.635,0,0,0,.134-.015.571.571,0,0,0,.481-.334l1.691-3.049a.6.6,0,0,0-.1-.793c-.082-.082-.184-.177-.313-.292-.047-.042-.116-.1-.205-.166h2.35V11.964H35.889V29.908h6.524c-.163.148-.327.309-.487.479A7.172,7.172,0,0,0,39.88,35.44c0,.151,0,.3.013.45h-4V53.834h5.245a14.273,14.273,0,0,0,1.335.848,14.089,14.089,0,0,0,2.12.929,13.223,13.223,0,0,0,2.662.648v3.558Zm-29.908,0V77.761H29.908V59.817ZM65.8,35.89V53.834H89.724V35.89Zm-59.816,0V53.834H29.908V35.89ZM65.8,11.964V29.908H89.724V11.964Zm-59.816,0V29.908H29.908V11.964Z" transform="translate(0 0)" fill="#ef4e8a"/>
        <path id="Subtraction_8" data-name="Subtraction 8" d="M29.473,58.946A29.481,29.481,0,0,1,18,2.316,29.481,29.481,0,0,1,40.945,56.63,29.288,29.288,0,0,1,29.473,58.946ZM22.8,35.04a.711.711,0,0,0-.094.006.652.652,0,0,0-.481.25l-2.151,2.819a.637.637,0,0,0,.042.857,5.224,5.224,0,0,0,.365.375,11.7,11.7,0,0,0,.97.783,12.8,12.8,0,0,0,3.665,1.931,13.252,13.252,0,0,0,2.662.648v3.654a.678.678,0,0,0,.669.668h2.819a.643.643,0,0,0,.669-.668V42.709a9.005,9.005,0,0,0,5.4-2.85,7.979,7.979,0,0,0,2.078-5.5,6.934,6.934,0,0,0-.272-1.963,7.609,7.609,0,0,0-.658-1.6,5.441,5.441,0,0,0-1.106-1.326,13.394,13.394,0,0,0-1.3-1.044,12.552,12.552,0,0,0-1.577-.887c-.656-.322-1.19-.568-1.587-.731s-.959-.382-1.691-.658c-.649-.248-1.141-.441-1.462-.574s-.744-.322-1.264-.564a7.321,7.321,0,0,1-1.169-.647,9.273,9.273,0,0,1-.825-.688,2.358,2.358,0,0,1-.616-.867,2.808,2.808,0,0,1,1.075-3.32,5.451,5.451,0,0,1,3.236-.9,7,7,0,0,1,1.786.24,9.4,9.4,0,0,1,1.555.543,10.811,10.811,0,0,1,1.221.668c.378.241.652.427.814.554s.263.21.3.251a.7.7,0,0,0,.43.16.631.631,0,0,0,.134-.015.571.571,0,0,0,.481-.334l1.691-3.049a.6.6,0,0,0-.1-.793c-.082-.082-.184-.177-.313-.292s-.39-.308-.814-.606a10.069,10.069,0,0,0-1.326-.783,13.46,13.46,0,0,0-1.817-.7,11.668,11.668,0,0,0-2.307-.481V10.281a.644.644,0,0,0-.669-.669H28.447a.678.678,0,0,0-.668.669v3.758a9.6,9.6,0,0,0-5.325,2.8,7.172,7.172,0,0,0-2.047,5.053,7.256,7.256,0,0,0,.178,1.628,8.364,8.364,0,0,0,.438,1.389,5.116,5.116,0,0,0,.742,1.211,12.884,12.884,0,0,0,.908,1.023,7.388,7.388,0,0,0,1.117.887c.46.307.857.556,1.18.742s.765.4,1.305.647.97.428,1.284.553c.343.137.787.317,1.284.522.767.3,1.313.52,1.67.679s.832.388,1.378.668a5.737,5.737,0,0,1,1.221.783,3.914,3.914,0,0,1,.7.877,2.128,2.128,0,0,1,.313,1.107,2.937,2.937,0,0,1-1.284,2.547,5.085,5.085,0,0,1-2.975.9,7.308,7.308,0,0,1-1.545-.167,10.954,10.954,0,0,1-5.074-2.61l-.042-.041A.5.5,0,0,0,22.8,35.04Z" transform="translate(19.472 13.55)" fill="#f15690"/>
      </g>
    </g>
  </g>
</svg>
