<svg xmlns="http://www.w3.org/2000/svg" xmlns:xlink="http://www.w3.org/1999/xlink" width="96" height="96" viewBox="0 0 96 96">
  <defs>
    <clipPath id="clip-Data_96">
      <rect width="96" height="96"/>
    </clipPath>
  </defs>
  <g id="Data_96" data-name="Data 96" clip-path="url(#clip-Data_96)">
    <rect width="96" height="96" fill="#fff"/>
    <g id="Data" transform="translate(5.205)">
      <path id="Icon_awesome-database" data-name="Icon awesome-database" d="M86.208,13.714v8.571C86.208,29.839,66.9,36,43.1,36S0,29.839,0,22.286V13.714C0,6.161,19.307,0,43.1,0S86.208,6.161,86.208,13.714Zm0,19.286V52.286C86.208,59.839,66.9,66,43.1,66S0,59.839,0,52.286V33c9.261,6.214,26.21,9.107,43.1,9.107S76.947,39.214,86.208,33Zm0,30V82.286C86.208,89.839,66.9,96,43.1,96S0,89.839,0,82.286V63c9.261,6.214,26.21,9.107,43.1,9.107S76.947,69.214,86.208,63Z" fill="#1d9db9"/>
    </g>
  </g>
</svg>
