<svg xmlns="http://www.w3.org/2000/svg" xmlns:xlink="http://www.w3.org/1999/xlink" width="96" height="96" viewBox="0 0 96 96">
  <defs>
    <clipPath id="clip-Facts_96">
      <rect width="96" height="96"/>
    </clipPath>
  </defs>
  <g id="Facts_96" data-name="Facts 96" clip-path="url(#clip-Facts_96)">
    <rect width="96" height="96" fill="#fff"/>
    <g id="Facts" transform="translate(-101.172 -314.282)">
      <g id="Group_24" data-name="Group 24" transform="translate(101.172 341.282)">
        <g id="Objects" transform="translate(0)">
          <g id="Group_22" data-name="Group 22">
            <path id="Path_13" data-name="Path 13" d="M334.238,252.3c-.371.1-.413-.256-.755-.185-.028-.6.442-.513.541-.955l-.954.171a3.748,3.748,0,0,0-.2,1.368,1.769,1.769,0,0,0-.37.271c.043.37.028.67.228.826l.385-.071a4.953,4.953,0,0,1,.228-.841,3.9,3.9,0,0,1,.1.784l.442-.071c.014-.029.014-.057.028-.086a.693.693,0,0,1-.057-.157.285.285,0,0,1,.114-.057c.028-.1.043-.2.071-.314a.484.484,0,0,1,.257.456.314.314,0,0,1,.057.071l33.968-5.984a1.346,1.346,0,0,0,.057-.37c.2-.014.285-.185.484-.2.014.228.143.3.214.442l.285-.057a3.063,3.063,0,0,1-.029-.4c-.242-.3-.784-.171-.755-.869.37-.071.684.043.954-.1,0,.157.043.37-.057.385a.378.378,0,0,0,.342.285c.256.071.171-.342.271-.47.043.427.014.712.029,1.026l2.579-.456a3.07,3.07,0,0,0-.171-.37c.171-.185.3.114.4.328l.185-.028a.435.435,0,0,1,.185-.128c0-.214-.114-.271,0-.427.142.128.356.142.385.427-.2.1-.043-.285-.242-.171-.057.214.1.128.128.228l5.443-.955a1.279,1.279,0,0,0,.043-.356c.328-.014.5-.271.542-.67-.057-.4-.328-.5-.485-.769a1.127,1.127,0,0,0,.114-.656l-5.87,1.04a9.948,9.948,0,0,1,.029,1.168c-.1-.47-.47-.7-.7-1.054l-.527.085a.745.745,0,0,1-.071.385c-.114-.114-.214-.228-.314-.313l-1.9.342a.593.593,0,0,1-.114.171,1.264,1.264,0,0,1-.114-.143l-5.728,1.012a.637.637,0,0,1-.328.157.705.705,0,0,1,.043-.1l-.427.071a1.562,1.562,0,0,0,.256.029c.043.5-.143.67-.385.784.014-.356-.171-.413-.185-.755l-.043.014c-.057.085-.043.285-.214.228.014-.085.028-.142.043-.2l-.057.014c-.086.271-.157.556-.228.841a.983.983,0,0,1-.157-.769l-6.2,1.1-.128.171a.686.686,0,0,1,.057-.157l-13.493,2.38c.014,0,.014.014.028.014-.071.413-.342.541-.613.684a.714.714,0,0,1-.071-.385c.328.2.313-.043.385-.256l-2.038.356a.16.16,0,0,0,.157.1c-.029.128-.128.157-.143.285a.453.453,0,0,1-.185-.356l-1.24.214a.583.583,0,0,1-.641.114l-3.933.7A.884.884,0,0,1,334.238,252.3Zm-1.012-.855c.085.014.185.014.185-.085.256.128-.071.427.057.513C333.4,252.063,333.227,251.649,333.227,251.45Zm40.266-6.725v-.385C373.721,244.226,373.82,244.867,373.493,244.725Zm-6.811,2.778c-.086.114-.442.157-.442-.086C366.3,247.047,366.725,246.962,366.682,247.5Zm-1.581-.769c-.057.242.085.228.071.427C364.858,247.318,364.8,246.677,365.1,246.734Zm-.9,1.468c-.285.043-.4-.143-.442-.428C363.932,247.874,364.131,247.959,364.2,248.2Zm-3.933-.185c.214.37-.257.627-.342.185C359.9,247.945,360.3,248.287,360.27,248.016Zm-.413-.769v.47c-.142.043-.185-.057-.271-.085C359.672,247.489,359.657,247.2,359.857,247.247Zm-.812.584h.342c.143.356-.028.613-.071.969A.66.66,0,0,1,359.045,247.831Zm-.955-.869a.777.777,0,0,1,.413.955c-.228-.057-.342-.3-.541-.385A2.379,2.379,0,0,1,358.09,246.962Zm.2,1.453a.677.677,0,0,1-.812.769C357.734,248.885,357.9,248.5,358.29,248.415Zm-1.083-.684a1.1,1.1,0,0,1-.413.684c0-.1-.086-.086-.142-.1C356.665,247.874,356.85,247.688,357.207,247.731Zm-12.51,3.092a.461.461,0,0,1,.7.171c-.043.313-.655.385-.755.085A.569.569,0,0,0,344.7,250.823Zm-2.679.4c-.313.085-.342-.228-.541-.285C341.505,250.524,342.118,250.794,342.018,251.222Zm-3.42-.47c.214.071.242-.1.4-.1.086.3.014.328-.071.584-.171.014-.328.014-.413-.1C338.527,250.965,338.613,250.937,338.6,250.752Zm-.741.67v.769c-.356-.014-.256.584-.613.584C337.173,252.3,337.672,251.863,337.857,251.421Z" transform="translate(-294.837 -242.184)" fill="#1d9db9"/>
            <path id="Path_14" data-name="Path 14" d="M163.58,262.4a.248.248,0,0,1-.171-.085c.014-.271-.043-.627.057-.769a.591.591,0,0,1,.442.413,1.923,1.923,0,0,0,.228-1.325l-.142-.784c-.114.3-.584.242-.727.043-.242.086-.057.442-.057.684-.413-.086-.185-.926-.627-1.126.356-.427,1.026.057,1.4.228l-.171-1a1.1,1.1,0,0,1-.442-.627,1.276,1.276,0,0,0-.128-.143.315.315,0,0,0-.214.228c-.143.014-.029-.3-.057-.427.171.228.043-.128.256-.085a3.113,3.113,0,0,0-.185-.7.407.407,0,0,1,.484.029l-.142-.8c-.014,0-.014,0-.028-.014v-.171l-.684-3.861c-.028-.014-.043-.014-.071-.028a.23.23,0,0,1,.057-.1l-.029-.185a.684.684,0,0,1-.342.2c-.085-.256,0-.584.271-.6L160.146,237.7a1.967,1.967,0,0,0-2.294-1.6l-4.46.784a3.425,3.425,0,0,1,.214,1.368c.755-.057.584-.983.955-1.439.271.769-.142,1.3-.271,2.023-.5.043-.556-.114-.955-.285-.185-.071-.128.185-.271.185a1.808,1.808,0,0,0,.1.6l4.716-.826,1.1,6.212c.1-.214.2-.456.427-.5.185.484-.142.57-.37.8l.2,1.168c0-.014.014-.014.014-.028a.341.341,0,0,1,.029.328l2.493,14.149-15.246,2.693c-.014.228-.271.143-.271.371a.277.277,0,0,1-.029-.328L132.96,265.71c-.014.257-.242.513-.4.328a.435.435,0,0,1,.029-.256l-.727.128a.165.165,0,0,0,.214.071c-.043.3-.043.627-.313.613a2.237,2.237,0,0,1-.057-.641l-.313.057c.043.328-.157.3-.185.513-.157-.029-.142-.285-.2-.442l-31.09,5.486a1.109,1.109,0,0,1-.228.727c-.214-.1-.142-.57-.484-.484v-.114l-1.254.214a2.265,2.265,0,0,1,1.04.385c-.029.427-.114.4-.128.67a2.268,2.268,0,0,0-1.026-.47c-.043-.171-.029-.4-.143-.484a.336.336,0,0,1,.143-.071L85.556,274.1v.057a.263.263,0,0,1-.214-.014l-7.68,1.354a1.422,1.422,0,0,0-.142.6c-.185-.171-.128-.37-.029-.57l-3.006.527-.114-.613c-.214.385-.57-.684-.2-.784a.945.945,0,0,0,.2.769l-.285-1.61a.108.108,0,0,1-.057-.014.86.86,0,0,1,0-.271l-.385-2.166a.721.721,0,0,1-.57.014,1.212,1.212,0,0,1,.5-.47l-.741-4.2c-.228,0-.541-.128-.427-.6a.277.277,0,0,0,.313-.1L70.6,253.955l2.237-.4c-.142-.057-.256-.142-.228-.442.128.114.313.157.342.427l2.137-.37a3.6,3.6,0,0,1,.043-.541c.242-.014.356.185.385.456l15.445-2.721a4.838,4.838,0,0,1-.085-.655c.2.2.413.655.627.442a.84.84,0,0,0-.057.114l2.565-.456v-.043a.238.238,0,0,1,.2,0l1.9-.342c.085-.342.256-.584.627-.527.057.128,0,.256.014.427l.584-.1c0-.014,0-.014.014-.014a.129.129,0,0,1,.143,0l.413-.071v-.014c-.029-.071-.057-.128-.086-.185-.071.028-.185.185-.328.085a.842.842,0,0,1-.057-.755c-.029-.043-.043-.085-.071-.128a2.919,2.919,0,0,0,.185-.7c.014-.37-.285-.3-.37-.513-.171.014-.086.342-.257.342a.348.348,0,0,1-.3-.313l-.157.028a.277.277,0,0,1,.014.114c-.228.114-.228,0-.37-.057l-.228.043c.014,0,.014.014.029.014-.029.043-.071.028-.128,0l-.7.128v.057a.123.123,0,0,1-.085-.043l-4.26.755c.014.214.043.385.142.456-.157.1-.456-.242-.271.385-.328-.043-.385-.385-.313-.769l-2.152.385a.415.415,0,0,1-.328.385c0-.086-.085-.071-.142-.1v-.214l-.328.057c-.142.242-.142.684-.484.641a2,2,0,0,1-.071-.541L69.8,251.675a1.967,1.967,0,0,0-1.6,2.294l2.137,12.14a2.513,2.513,0,0,1,.171-.285c.171.313.029.869,0,1.254l1.126,6.355h.043a1.206,1.206,0,0,1,0,.228l.57,3.206a1.982,1.982,0,0,0,2.137,1.624V278.4c.114-.043.185-.014.228.057l1.525-.271a.424.424,0,0,1,.085-.3.289.289,0,0,0,.2.085c.014.057.014.114.028.171l2.095-.37a2.313,2.313,0,0,1,.57-.883,1.681,1.681,0,0,1,.228.741l.755-.128c-.057-.142.043-.484.185-.427.043.256-.057.3-.114.413l12.239-2.151v-.1a.191.191,0,0,1,.1.085l14.932-2.636c-.057-.157-.029-.427.157-.37-.014.085.014.242,0,.342l1.354-.242a.242.242,0,0,1,.313-.057l.2-.029c-.071-.185,0-.456.228-.37a.806.806,0,0,1-.014.328l.342-.057v-.356c.085-.014.171.157.2.328l21.544-3.79a.993.993,0,0,1-.086-.271c.1.043.171.157.242.242l30.648-5.4A2.656,2.656,0,0,0,163.58,262.4ZM156.086,238.5c-.214.014-.228-.242-.271-.484C156.071,237.939,156.114,238.167,156.086,238.5Zm.071-1.254c.014-.3-.157-.541,0-.769C156.328,236.429,156.4,237.312,156.157,237.241Zm2.807,5.97c-.256.085-.328-.313-.214-.484C158.964,242.67,158.978,242.926,158.964,243.211Zm.4.185c.142-.228.114-1.069.47-.684A.842.842,0,0,1,159.363,243.4Zm.541-3.092a.787.787,0,0,1,0-.67,1.07,1.07,0,0,1,.2.67Zm-62.622,7.338c.171.242-.086.37-.071.67h-.342C96.869,247.9,97.012,247.685,97.282,247.643Zm-2.194.741c.142.085.385.057.513.157-.071.356-.385.086-.57.1C95,248.5,95.074,248.483,95.088,248.384Zm-2.65.427c.057.3-.185.185-.128.484-.171.014-.214-.157-.342-.185C91.954,248.754,92.324,248.654,92.438,248.811Zm-3.876.969c.356-.043.171.855-.128.769C88.491,250.25,88.7,250.15,88.562,249.78Zm-1.781-.285c0,.328-.028.684.214.67-.029.086-.057.171-.143.2H86.71C86.824,250.022,86.454,249.552,86.781,249.495Zm-.883.869c.256,0,.242.37.271.684h-.342C85.77,250.706,85.941,250.663,85.9,250.364Zm-2.379.2c-.171.014-.328.014-.413-.1C83.091,250.079,83.618,250.051,83.518,250.564Zm-1.425-.285c.185,0,.157.456.071.584C81.965,250.848,81.98,250.393,82.094,250.279Zm-7.167,2.038c-.014.171.086.2.071.385-.2.071-.271.313-.47.385C74.442,252.558,74.5,252.316,74.927,252.316Zm-1.083-.4v.484a7.763,7.763,0,0,1-1.083-.085A.848.848,0,0,1,73.844,251.917Zm-4.032,1.368a10.507,10.507,0,0,0-1.012.784C68.558,253.3,69.555,253.085,69.812,253.285Zm.086,7.694a1.13,1.13,0,0,1-.271-.684c.157-.142.285.043.342-.1.071.157.2.242.2.485C70.111,260.851,69.826,260.666,69.9,260.979Zm.256-3.462c-.128.185-.242.028-.4,0v-.385C70,257.1,70.225,257.1,70.153,257.517Zm1.439,12.211c-.014-.271,0-.527.214-.485C71.949,269.443,71.878,269.842,71.593,269.728Zm.214-6.44c-.256.114-.214-.2-.342-.285a.235.235,0,0,1,.413-.1A.924.924,0,0,1,71.806,263.287Zm.484,8.278c-.057-.328.085-.4.142-.57C72.647,271.024,72.576,271.694,72.291,271.566Zm5.457,6.141a.783.783,0,0,1-.271-.769A.527.527,0,0,1,77.748,277.707Zm14.989-4.645c.171.014.256.142.271.385a.277.277,0,0,0-.142.185A.442.442,0,0,1,92.737,273.062Zm-7.366,3.006c-.185-.085-.157-.484-.2-.769.157-.214.413-.014.541.1C85.627,275.641,85.428,275.755,85.371,276.068Zm1.567-.385a1.07,1.07,0,0,1-.413-.67C86.838,274.985,87.052,275.427,86.938,275.683Zm1.981-.484c-.185-.285.057-.484.142-.67C89.189,274.629,89.161,275.313,88.919,275.2Zm4.431-.784a.7.7,0,0,0-.883.67c-.456.114-.4-.527-.413-1.054a2.871,2.871,0,0,0-.541-.385c.7-.071,1.1.769,1.838.1Zm1.225,0h-.342c.086-.513-.413-.627-.071-.969.185-.028.228.128.214.385.157-.043.185-.427.342-.185C94.889,273.931,94.461,273.931,94.575,274.415Zm13.223-2.251c-.043-.342.2-.3.413-.285C108.054,271.979,107.94,272.378,107.8,272.164Zm4.9-1.439c-.256-.1-.385-.356-.684-.385.029-.143.1-.242.128-.385C112.5,269.97,112.742,270.155,112.7,270.725Zm17.64-2.821c-.185-.185,0-.4-.128-.6h-.442c.014-.356-.014-.641-.2-.7.071-.143.271-.086.385-.171C130.1,266.921,130.652,267.305,130.339,267.9Zm.5-.955c-.185-.071-.228-.313-.442-.342-.014-.242-.014-.47.2-.427C130.524,266.636,130.894,266.507,130.837,266.949Zm2.508-.9c.285.057.285.513.47.67C133.716,267.106,133.3,266.522,133.345,266.052Zm12.14-1.268c-.214-.014-.185-.37-.2-.67C145.585,263.943,145.627,264.641,145.485,264.783Zm14.12-2.707c-.1-.071-.128-.214-.128-.428C159.7,261.578,159.7,261.948,159.6,262.076Zm.456,1.111a.622.622,0,0,0,.057-.256,1.03,1.03,0,0,1,.57.085A.987.987,0,0,1,160.061,263.188Zm2.964-4.4c-.128.3-.356-.214-.185-.342C162.968,258.457,162.9,258.756,163.025,258.785Zm-1.781-6.127a2.847,2.847,0,0,0,.57-.769c.214.043.328.256.442.442-.271-.043-.328.541-.7.6a.579.579,0,0,0,.185.6,1.285,1.285,0,0,1-.385.6A8.9,8.9,0,0,1,161.243,252.658Zm.769,10.1c-.271-.157-.043-.712.2-.7A1.132,1.132,0,0,1,162.013,262.76Zm.256-3.975c.086.385-.214.228-.185.513-.171-.271.143-1.14-.442-1.2a2.281,2.281,0,0,0,.185-.427c.128.028.057.313.185.342.214-.171.342-.456.7-.428a1.74,1.74,0,0,1,.128.77c-.171-.128-.185-.485-.513-.427-.128.142-.157.413-.256.613C162.084,258.685,162.284,258.585,162.269,258.785Zm.128,2.08c.271-.028.171.314.128.513C162.341,261.278,162.312,261.122,162.4,260.865Z" transform="translate(-68.168 -236.068)" fill="#1d9db9"/>
            <path id="Path_15" data-name="Path 15" d="M737.552,385.442l-.057-.342a.232.232,0,0,0-.029.185A.244.244,0,0,0,737.552,385.442Z" transform="translate(-642.097 -363.865)" fill="#1d9db9"/>
            <path id="Path_16" data-name="Path 16" d="M287.146,306.011c-.214-.1-.484-.114-.6-.342-.171.128-.413.029-.442-.271a.669.669,0,0,1-.057-.428c.228,0,.3.214.413.385a.17.17,0,0,1,.1.1.2.2,0,0,0,.057.043c.271-.128.157-.47.57-.257-.014-.271-.157-.37-.257-.541l-1.183.214a.691.691,0,0,1,0,.242c-.114.014-.185-.086-.228-.2l-2.095.37a1.41,1.41,0,0,1-.527.67,3,3,0,0,0,.029.37,1.956,1.956,0,0,0,.442-.684c.513.085.513.513,1.054.584.014-.057.014-.1.028-.157.029.057.043.114.071.171.128,0,.028-.314.057-.428.2.014.271-.171.442,0-.142.356-.47.456-.442,1.04-.043,0-.071-.014-.1-.014a1.584,1.584,0,0,0-.128.684l3.776-.67C287.631,306.923,286.961,306.908,287.146,306.011Z" transform="translate(-252.304 -294.921)" fill="#1d9db9"/>
            <path id="Path_17" data-name="Path 17" d="M279.8,310.2Z" transform="translate(-249.646 -299.637)" fill="#1d9db9"/>
            <path id="Path_18" data-name="Path 18" d="M315.939,300.3l-2.935.513a.321.321,0,0,1,.014.128c-.057.442-.442.427-.371,1.04.014.071.057.086.057.171.214.071.242-.128.442-.085.171-.356.3-.784.684-.855-.285.755.185,1.04,0,1.881l1.225-.214c-.071-.3.057-.712-.143-1.069.214.057.228-.157.356-.185a1.085,1.085,0,0,0,.086-.826C315.7,300.813,315.782,300.5,315.939,300.3Zm-1.966,1.924c.029-.228.2-.484.385-.256C314.371,302.266,314.115,302.423,313.972,302.224Zm.955-.684c-.185-.114-.142-.641,0-.769.086.043.157.128.257.185C315.226,301.312,314.913,301.212,314.927,301.54Z" transform="translate(-277.805 -291.148)" fill="#1d9db9"/>
          </g>
        </g>
        <path id="Path_19" data-name="Path 19" d="M.894,0V.176H.952Q.952.035,1.2,0l.118.176V.294q-.176,0-.176.188L.894.6.658.541Q.541.811.423.835L.364.776H.294l-.176.235.364.071v.412q-.247,0-.247.176H0V1.011L.059.482,0,.059.059,0ZM1.67,0H3.7l.118.118V1.728H3.7q0-.353-.118-.353l-.118.118v.118q0,.118.353.247V3.7L3.41,3.645H3.351V3.7l.47.188v.717H3.645v.118q.176,0,.176.118V7.713q-.235,0-.235.423l.059.059-.176.118H3.292q-.118,0-.118-.306H3.1q0,.306-.176.306H2.634L2.516,8.2V7.948q.176,0,.176-.118l-.059-.294L2.575,7.6H2.516l.059.059v.176l-.129.118H2.269q-.294-.106-.294-.529V7.349l.176-.059-.118-.353q.235,0,.235-.306h.482V6.4H3.1l.071-.059h.059q0-.176-.247-.176L2.928,5.8l-.059.059H2.81l.059.059v.129l-.176.176-.247.059v.176L2.387,6.4H2.269l-.118.364-.235-.129v.129h-.6V6.514l.059-.294Q1.2,6.22,1.2,6.1V5.855L1.376,5.8a.475.475,0,0,0,.482.423V6.161a.5.5,0,0,1-.306-.423L1.67,5.62l.059.059h.306V5.326q0-.129.176-.129V5.079a.312.312,0,0,1-.353-.353L1.8,4.785H1.728L1.2,4.668l-.059.059V4.609q.176,0,.176-.129V4.3H1.2v.118L.894,4.362H.776v.059H.894v.118l-.235.071V4.3H.835V4.068L.776,4.009V3.951a.37.37,0,0,0,.235-.364H1.2l.176.176-.118.129.118.353h.118V4.009h.059l.118.118-.059.059v.059h.118l.364-.118V4.009a1.208,1.208,0,0,1-.776-.423V3.1H1.2q0,.141-.247.364L.894,3.41H.6l.118.412q0,.188-.482.482v.059H0v-.47l.118-.423H0V3.233H.118V3.41q.447,0,.482-.235V3.1H.541v.129Q.059,3.175.059,2.81l.235-.176H.658L.6,2.928v.118H.658Q.67,2.81.776,2.81L.658,2.269l.118-.118V2.093Q.6,2.093.6,1.975l-.059.059H.482L.294,1.858V1.8Q.6,1.8.6,1.552L.541,1.493.6,1.434l.059.059H.835l.306-.059L1.2,1.8h.059a.56.56,0,0,1,.353-.188V1.493l-.235-.059L1.552.894Q1.4.894,1.317.541L1.434.365l.294.118L1.8.423,1.67.059ZM4.609,0H6.043l.118.118L6.043.235V.423H6.1q.176,0,.176-.423H7.29l.059.059L7.419,0H8.2q.035.294.176.294L8.43.235h.059L8.43.176V0H9.924V.176L9.982.118l.059.059h.118V.118L10.1.059V0h2.152l.129.118V2.986l-.129.118H10.7V2.928q-.118,0-.118.176H7.172L7,2.986,6.819,3.1H4.609L4.48,2.986v-.47l.059-.071L4.48,2.387V.541h.129V.365H4.48V.118ZM2.516.423,2.387.658h.129L2.634.541Zm.776.118q.118.47.235.47L3.7.835q-.118,0-.118-.294L3.527.482H3.469ZM5.021.776,5.2.894,5.256.717,5.2.658H5.138Zm-2.928.235h.059L2.328.835H2.269ZM9.982.835q0,.247-.353.247l-.059-.071-.059.247h.353l.176-.364V.835Zm-2.928.176L7,1.258h.118l.118-.118Zm-4.48.129v.294H2.516l-.129-.118.059-.059H2.269v.353H2.152v.118h.118q0-.212.541-.235.141-.235.294-.235V1.141Zm3.163.118v.235l.118-.118V1.258Zm3.527.294h.176V1.376Zm-4.3.118L4.9,1.728V1.8l.059.059h.059L5.079,1.8l.176.235v.353h.071L5.5,2.328V2.269A1.219,1.219,0,0,0,4.962,1.67Zm-2.986.306v.059h.118l.059-.176H2.093Zm-.964.118V2.21h.071l.294-.059V1.975Zm1.858,0,.059.294H2.81v.188h.059l.541-.247h.059V2.269L3.175,2.21H2.986V2.093Zm-1.434.059v.176h.118V2.152Zm.6.235v.059h.118l.118-.118L2.21,2.269H2.152Zm4.9-.059v.118h.118l.118-.118Zm-1.8.118v.129h.118l.129-.129Zm3.233,0-.118.364h.059l.176-.176V2.446Zm-6.455.188V2.81h.118V2.634Zm3.645.059v.235H5.62l.059-.176L5.62,2.693Zm3.645.118v.118l.118.118V2.81Zm-6.279.482H2.575l-.129-.118-.176.059v.235l.306.059.059-.059.6.176V3.586q0-.118-.188-.118V3.41l.247-.235h.353L3.7,2.986l-.059-.059H3.527Zm-.482.835-.059.059v.059l.188.176.059-.059h.118q.294,0,.294.247h.188V4.538A1.723,1.723,0,0,0,2.446,4.127Zm.847.482h.235L3.41,4.48ZM0,4.538H.118l.059.306-.059.412L0,5.138Zm2.634.071v.118q.118,0,.118.235h.118l-.176-.294V4.609ZM.6,4.727q.129,0,.353.6h.059l.071-.306q-.188,0-.188-.118L1.2,4.844l.294.176h.059V5.2l-.118.129H1.141a.483.483,0,0,1-.188.412h.059L.952,5.8v.059l.129.364-.188.118L.717,6.161H.658l-.118.118a.485.485,0,0,0,.412.541v.059l.059-.059h.071l.118.118v.412q-.306,0-.306.129v.059a.417.417,0,0,0,.423.235q0-.353.118-.353v.059l.176-.059V7.349q0-.118-.176-.118l-.059-.059V7l.118-.176q.482,0,.482.412-.118,0-.118.306H1.728v.176q.788.553.788.658t.294.118l.059.059v.306l-.059.294h.059l.306-.118.059.059V8.971q0-.118-.247-.118,0-.129.306-.129V8.665l.353.129V8.724L3.7,8.489h.118V9.865l-.059.423.059.529v3.951a.783.783,0,0,1-.235.482v.118l.059-.059h.176v.059l-.059.059.059.294V16.5l-.353.364H3.175l-.188-.118.059-.059V16.5l-.353.129v.118H2.328V16.5l.247-.118h.059V16.32L2.516,16.2H2.446q0,.153-.353.364L1.728,16.5q.071-.412.188-.412H2.21q0-.176.306-.176l.235-.364v-.059H2.516v-.353h.235l.353.294h.129v-.059q-.306,0-.306-.364v-.059a.39.39,0,0,0,.364-.294h.059v.118h.118v-.176l-.118-.482H3.233l-.188.364.129.118-.658.47L2.328,15v.059q0,.27-.47.364a.454.454,0,0,0-.364-.294v-.188l.118-.118H1.67l.306.059-.059-.059v-.059l.118-.353H1.728l.071.059v.118H1.611l-.118-.247v-.059H1.434q0,.423-.118.423H1.2l-.188-.059v.059l-.118.353L.835,15H.776l-.118.129q.423,0,.423.235l.059.294-.482.059.059.059V16.2q.364,0,.364.118v.364H.717q-.106,0-.176-.364-.423,0-.423-.118v-.423H.235V15.72Q0,15.72,0,15.6v-1.07l.423-.364H0v-.059l.118-.176v-.176L0,13.568V10.041q0-.118.176-.118V9.865Q0,9.865,0,9.747V8.43l.118-.118H.176l.059.059H.294V8.313L0,8.007V5.679H.118L.235,5.8H.176l.059.188H.364V5.679q0-.118.353-.118V5.5L.294,5.385V5.256L.364,5.2V5.138L.294,5.079A.572.572,0,0,0,.6,4.727Zm2.269.294V5.2h.118l-.059-.176Zm.118.306q0,.306-.176.353L2.575,5.62l-.423.059v.176l.835-.176L3.1,5.561V5.444ZM4.538,6.4q.376,0,.541.541L5.021,7h.118L5.2,6.937,5.256,7h.071L5.5,6.819,5.2,6.514V6.4h.059l.071.059h.059L5.444,6.4l.294.059H6.22L6.514,6.4v.059L6.573,6.4h.188l.176.059L7.231,6.4H8.254l.47.118L8.854,6.4h.059l.059.059L9.03,6.4h2.387l.118.118v.059h-.059l-.294-.059-.059.059v.059l.482.129.059-.188h.118V7.654a1.041,1.041,0,0,1-.658-.306h-.364V7.231h-.353q0-.235-.247-.235v.059q.141.541.306.541a.156.156,0,0,1,.176.176l.059.059h.059q0-.235.188-.235l.176-.118.353.235H11.6l.059-.059h.059l.059.412v.788l-.059.059.059.059V9.03l-.059.412L11.3,9.383l-.118.129h-.118V9.441l-.423.071H9.924l-.059-.071-.059.071H9.383l-.059-.071-.059.071H8.912l-.247-.071-.235.071H8.007l-.118-.129-.47.129H5.855q-.118,0-.235-.364H5.561l-.118.176-.188-.059v.059q0,.188-.294.188H4.609V9.383H4.9V9.324l-.059-.059L4.9,9.089h.059l.059.059h.059l.059-.059V8.795q0-.129-.176-.129L4.9,8.724H4.844l-.176-.059.059.059-.059.071v.059l.059.176-.118.294H4.48V8.607l.059-.059L4.48,8.489V7.231h.059q.129,0,.188.482h.059A.7.7,0,0,1,4.9,7.231V7.172l-.364-.353V6.631l.071-.059-.071-.059ZM.294,6.514.235,6.7l.059.059H.364l.118-.188L.423,6.514Zm6.161.118V6.7l.176-.071V6.514H6.573ZM6.7,6.573V6.7h.059l.176-.071V6.514H6.878Zm-3.351.188.118.118h.118V6.819l-.059-.188H3.469Zm5.738,0A.685.685,0,0,1,9.512,7a.156.156,0,0,1,.176-.176q0,.094.412.294V7a.674.674,0,0,1-.529-.364H9.206ZM2.81,6.878v.059l.059.176H3.1V7l-.235-.118ZM6.631,7v.176h.129V7.113ZM5.5,7.113A.508.508,0,0,0,5.8,7.6L6.1,7.172V7.113H6.043q0,.118-.247.118v.118H5.738V7.231L5.62,7.113ZM.482,7.349l-.059.071V7.6L.6,7.419.541,7.349Zm7.889,0v.129h.294V7.349l-.059.071H8.548Zm-1.917.129v.059l.059.176h.059L6.7,7.6ZM9.571,7.6l.059.235h.118l.118-.118L9.747,7.6ZM5.2,7.713v.118h.129q0,.118.176.118v.423H5.62l.059-.306Q5.338,7.713,5.2,7.713Zm4.433.235V8.2h.059V7.948Zm1.129.118.059.306.188-.176-.129-.129ZM6.22,8.2l.118.176-.294.118q0,.094.235.176,0-.094.294-.176l.059.059-.059-.235-.059.059H6.4V8.2Zm2.5.118v.235l.188.059.118-.353ZM.835,8.795h.176v.059l-.294.059V9.03H.835v.235l.059.306-.353.118V9.63l-.306.059v.059l.059.059v.059l.6-.118v.118h.118V9.441h.306l-.059-.235.059-.176h.412l.188.176-.059.059v.118l.118.129V9.324h.118l.235.247V9.63l-.059.059.059.059v.059l-.059.294h.118l.059-.47.071.059h.118V9.63q-.118,0-.118-.306-.306-.035-.306-.176l.235-.482H2.269v.129H2.093l-.059-.071H1.975l.059-.294V8.372H1.917l-.059.353L1.8,8.665H1.728l-.059.188H1.258v.235H1.011V8.971H1.14V8.912l-.059-.188H1.14q.141,0,.235-.412H1.141Zm4.3-.247v.059H5.2L5.5,8.548V8.43H5.444Zm4.3-.059v.118l.188.423h.059V8.665q-.118,0-.118-.176Zm-1.552.6v.176h.059l.188-.059V9.148Zm1.681,0q0,.176-.129.176v.118l.247-.118V9.089Zm-8.2.482q0,.294-.118.294l-.176-.059a.649.649,0,0,1,.118.423h.118q.106,0,.176-.306l-.059-.059.235-.118v.118h.059V9.63Zm1.858.059v.235q.082,0,.176-.235Zm-.306.353v.059l.118.118V9.982Zm-2.563.247v.118l.176.059L.6,10.347v-.306H.541Zm2.152.353v.176h.059l.176-.059v-.118Zm.588.176v.059l.071.423h.176a.26.26,0,0,1,.294-.294q-.035-.235-.353-.364Zm-2.5.188v.118l.176.176.306-.118v-.059l-.129-.118-.294.059Zm1.493.118v.118h.235l.188-.176v-.059H2.446Zm.952.294-.059.247H3.1v-.247Zm-2.563.306-.059.059v.059H.482v-.059l.059.059H.658v-.059Zm.235.118v.059l.176.176v-.059Zm1.728,0V11.9l.364.059v.059a.7.7,0,0,1-.176.423V12.5h.118q.118,0,.118-.247l.364-.059V11.9Zm-1.188.294v.059h.235v-.118H1.434Zm-.964.306V12.5H.423l-.059.059v.059l.059.176H.364l-.188.059v.059H.364A.793.793,0,0,1,1.14,12.5v-.118L.6,12.5l-.118-.118Zm3.175,0-.059.059v.176q.176,0,.176.235h.176a.775.775,0,0,1-.235-.412h.118v-.059ZM.6,13.392v.235l.294-.353-.059-.059Zm2.693.118a.27.27,0,0,1-.306.306v.059l.482.059v-.364Zm-2.575.423.118.118.176-.059v-.059Zm-.176.176v.059l.118.118H.717v-.118l-.059-.059Zm.176.364v.059l.118.118.118-.118Zm-.294.776q0,.176-.188.176l.129.118L.294,15.6v.118H.6v-.059a.6.6,0,0,1-.118-.412Zm1.07.294v.306l-.118.118L1.258,15.6l.059-.059Zm1.8.6V16.2h.059q.353-.059.353-.176v-.059H3.469Zm-3.175.482.059.059v.059l-.118.118L0,16.8v-.059ZM22.551,0l5.961,16.861h-4.35a20.039,20.039,0,0,0-1.129-3.586H18.366l.905-3.116H22.14V10.1q-1.2-3.774-1.74-6.208h-.059a88.466,88.466,0,0,1-2.387,8.665,19.447,19.447,0,0,1-.905,2.751h-.118v.118l.118.176L16.7,16.861h-.059l-.176-.059-.306.059h-.294l-.188-.059-.294.059H14.6l-.364-.059-.176.059V16.8L14,16.861h-.717v-.776l.059-.364-.059-.176.059.059H13.4l.059-.059v-.059h-.176v-.776l.118-.118h.118l.188.059v-.059l-.059-.176h-.129l-.059.059-.176-.059.059-.482H13.4l.482-1.552.176.118.059-.059v-.059l-.176-.129.353-1.07h.071q0,.118.176.118v.364l.118-.129v-.529q0-.188.353-.188v-.059l-.059-.176h-.118q-.2,0-.353.6h-.118v-.059l.353-1.141h.235V10.1h.188V9.924l-.129-.176.129-.364-.059-.059h-.071q0,.423-.118.423h-.059L16.155,5.8h.059v.118h.118l-.118-.176q.071-.482.247-.482L16.39,5.2V5.138L18.189,0Zm-5.5,5.2v.129l.247.059V5.326L17.107,5.2ZM15.92,7.113v.118l.294-.059V7.113ZM15.861,8.2q0,.353-.247.353l.059.059v.059q-.176,0-.176.247h.235q0-.482.247-.482V8.2ZM15.2,9.03v.059l.118.118.059-.059V9.03Zm1.728.717-.059.059v.059h.176Zm-.658.835q.165.235.306.235v.364H16.7l.118-.235a.759.759,0,0,0-.353-.364Zm-.776.482v.059l.118-.118v-.059Zm-1.2.717v.059l.306.118-.059-.176Zm2.034,0v.235l.059-.059h.071l-.071-.176Zm-1.317.353v.118h.247v-.118Zm.788,0-.071.059v.059l.188.129h.059v-.059Zm-.247.6v.118h.423v-.059l-.176-.059v.059l-.071-.059Zm-.894.235v.247h.176q0-.118.176-.118v-.129l-.294.071Zm-.776.964q0,.118-.176.118l.118.118h.059l.235-.118v-.118Zm.353.294q-.235,0-.235.188h.235v-.129l.188-.059-.059-.176-.071.059h-.059Zm2.575.306q0,.118-.176.118a.582.582,0,0,1,.235.412h.059l.118-.118v-.059A.315.315,0,0,0,16.814,14.533Zm-1.082.118v.059l.071.176h.118V14.65Zm-.294.482-.118.47.118.364-.423.176.071.176H15.2q0-.129.235-.235h.294V16.2q.165,0,.247.364h.176l-.118-.423a.156.156,0,0,0,.176-.176L16.1,15.6v-.059h.118v-.176H16.1l-.118.118v.059l.059.541-.541-.423v-.235l.118-.176v-.059Zm-.776.647v.071l.294.118q0-.118.188-.118v-.071l-.129-.118h-.235Zm-1.2.306v.176q.247-.082.247-.176ZM36.614,0l.059.059V2.681l-.353.235v.059l.176.059q0-.176.118-.176h.059v.118l-1.493.517-.964.741-.459-.118q.106.259.223.282,0-.165.118-.165v.106a6.014,6.014,0,0,0-1.258,2.975l-.059-.059H32.6q0,.118.176.118l.059.059v.118q0,.682-.176.682H32.6l.059.059v.118l-.106.106-.176-.059-.059.059v.059l.059.059h.059l.165-.059a4.553,4.553,0,0,1,.4,1.775l-.165.165h-.059v.059H32.9v-.059q.282,0,.282.517l-.059.059a5.9,5.9,0,0,1,.917,1.434q0,.129,1.2.905l.976.235v.165l-.059.059v.059l-.059-.059h-.118v.176h-.118V14l.059-.059v-.059l-.341-.059a.631.631,0,0,1-.623.517v.118q.165,0,.165.223v.059l.235-.059-.059-.059V14.58q.282,0,.282-.118v-.118l-.059-.165h.059l.235-.059h.106l.4.106V14.18q.235.082.235.165L36.5,14.4v.059h.059l-.059.059v.165l.059.059V14.8l-.059.059h-.059l-.118-.118q0,.118-.165.118l-.059.282h.059l.223-.059q0,.118.235.118v.118L36.5,15.6h-.059l-.223-.118-.235.176v.118H36.1V16l-.118.118-.223.059V16h.106v-.118l-.165-.047a1.249,1.249,0,0,0,.341-.635q-.129,0-.4.459l.059.059h-.059l-.176-.118h-.047l-.118.118q0,.165.223.165l-.059.176.059.282-.059-.059h-.047v.059q.165,0,.223.4H35.52V16.8L34.5,16.578l.059-.294-.341-.106-.118.106q0-.223-.176-.223h-.059a.2.2,0,0,1-.223.223,6.542,6.542,0,0,1-2.457-1.764l.059-.235-.059-.059h-.059l-.118.118-.858-1.2.059-.176h-.059q-.212,0-.741-1.54,0-.517.4-.517l-.059-.282q.118,0,.118.176l.059-.059h.059l.059.059v-.176h.165l.118.118-.176.165.059.059v.118l-.059-.059H30.1l-.059.4.282.059v-.059a.667.667,0,0,1,.576.341l-.059.059.059.059h.106l-.106-.341h.047l.176.059v-.059l.176.118.047-.059h.118v.118l.118-.118v-.059l-.059-.059v-.059l.059-.059-.059-.059h-.059q0,.235-.165.235H31.24q-.27-.282-.4-.282l-.118.106H30.5q-.118-.024-.235-.282a.526.526,0,0,1,.282-.459l.059.059v-.059l.235.118.059-.059v-.059l-.059-.059.106-.223-.047-.059.047-.059H30.84l-.059.059h-.059l-.176-.059v.059l-.106.118v-.059l-.341.118h-.517v.106h-.294q-.223,0-.223-.858l.282.176h.176V9.771l-.059-.282.176-.176h-.059l-.235.176-.106-.235.047-.047-.223-.118q.047.341.118.341l-.059.176q-.176,0-.176-1.258,0-1.376.176-1.376l-.059-.059V6.855a9.2,9.2,0,0,1,1.481-3.88A7.643,7.643,0,0,1,36.614,0Zm7.572,12.369a12.519,12.519,0,0,1-1.176,1.917,7.761,7.761,0,0,1-5.655,2.575v-.118q.165,0,.165-.106H37.3v-.8h.118v-.353h.165l.176.118h.059l.223-.118-.341-.459V14.8q0-.611.459-.682l-.059-.059L38.154,14V13.78l-.282.047v-.165l.506-.118V13.6l-.047.059v.059h.106q0-.235.917-.694.682-.564.682-.741h.4v-.059l-.047-.059v-.047l-.059.047h-.118v-.047q0-.094.517-.4v-.176l-.059-.282.059-.059h.106l.059.059.059-.059h.059q.176,0,.176.165h.047v-.223h-.282q-.118,0-.118-.176l.059-.364ZM41.411,6.455l-.623-.564.047-.059V5.773l-.682-1.14A4.367,4.367,0,0,0,37.977,3.2q-.682-.082-.682-.223V.118L37.413,0a7.978,7.978,0,0,1,5.079,2,6.411,6.411,0,0,1,1.775,2.693l-.118.165v.118l.118.118V4.738q.082,0,.176.282Zm0-4.574V1.94q.118,0,.118.176h.106V1.881ZM31.746,2.916v.165Q32,2.951,32.04,2.8h-.059ZM43.692,5.091q0,.165-.282.165v.059h.235l.341-.118V5.091h-.118l-.059.047H43.75Zm-13.545.341V5.55h.176V5.432Zm2.634,1.14q0,.118-.176.118V6.8h.059l.235-.223Zm-1.14.118V6.8H31.8V6.69Zm-1.493.564v.118l.118.118.059-.059V7.255Zm.517.235v.118h.176V7.548Zm-.917.223v.118l.176.059V7.831Zm1.258.118v.059l.059.165a.982.982,0,0,1-.517.176q0-.141-.223-.176l-.059.059v.059q.459,0,.459.576h-.059q-.118,0-.118.165-.447.2-.447.294h.047q.517-.118.517-.353l.341-.047v.047l.059-.047h.118l-.059.047v.059l.059.059.059-.059H31.3l.106.118-.059.059h.294V9.03l-.059-.176H31.7v.118h.165L31.8,8.912V8.807h.059l.235.165.165-.059L32.2,8.854V8.807l.059-.294h-.341V8.407h-.059v.106q-.4-.082-.4-.282V8.172L31.4,8.23h-.059a.7.7,0,0,1-.282-.4Zm-1.082.623V8.63l.176-.059V8.454l-.059.059h-.059Zm-.059.752v.106H30.1l-.118-.106Zm.741,0-.059.223q.118,0,.118-.176V9.206Zm-.223.4v.059l.165-.176H30.5Zm1.94.341.059.059v.059l.282-.059V9.888H32.6Zm-.341.118.059.165.223-.223h-.106Zm-.741.223-.176-.059h-.059v.059l.4.223h.059l-.059-.282.118-.118h-.059Zm.8.282q0,.176-.118.176l-.223-.059v.059l-.059-.059h-.059l-.235.341.059.235h.059a.382.382,0,0,1,.282-.353h.176v.059H31.8l.176.294h.282l.059-.059h.059l.223.223h.059q-.353-.564-.506-.564V10.57Zm-2.8.235h.047l.235.059v.047l-.176.176h-.059Zm1.764.106-.059.176.059.176h.059l.059-.176.176.059V10.97Zm-1.317.576-.047.059V11.6l.564.341v-.118a.434.434,0,0,0-.165-.341l-.059.059h-.059Zm11.664,0,.118.118h.059l-.118-.118Zm-8.289.282v.059h.176v-.106Zm7.889.459.059.176h.059l.118-.118v-.118l-.118-.106Q40.952,12.063,40.952,12.228Zm1.082-.059.059.059-.059.059h.176l-.059-.223Zm-8.454,0v.118l.118.118.106-.118-.165-.118Zm-2.281.353.223.047.118-.165H31.4Zm9.994-.059v.059l.059.047h.176v-.047Zm-.682.223.059.176h.059l.106-.118v-.118l-.106-.106Q40.611,12.522,40.611,12.687ZM33.3,12.8l.059.059v.059l-.059.165.059.059h.106Q33.462,12.851,33.3,12.8Zm.459.282-.294.282.517-.165v-.059Zm-2.234.118.059.223H31.7l.106-.106V13.2l-.059.059L31.7,13.2Zm-.917.341v.176h.059l.176-.059-.118-.118Zm2.116,0v.235h.059l.059-.235Zm2.575,0,.059.059v.059h-.118v.118l.176-.118.047.059v-.059l-.106-.118Zm-4.35.118v.165l.059.059h.059v-.059l-.059-.165Zm2.634.059v.223a.408.408,0,0,0,.282.4h.118v-.223Zm-2.234.4.118.106.059-.047v.047l.176-.047L31.64,14h-.176Zm.811.106.106.118h.118l.059-.223h-.059Zm5.256-.047h.106l-.047.282h-.059l-.118-.118v-.059Zm-5.491.341h.059L32.1,14.4v-.059Zm.576-.176v.176H32.6v-.176Zm.165.235.059.047-.059.059v.059l.118.118.176-.059v.118H33q0-.118.235-.118l.118-.118V14.58l-.176.106-.341-.106Zm5.491.106v.059l.176.059v-.118Zm-.858.176h.118v.459l-.118.106Zm-5.032.282V15.2a.408.408,0,0,0,.4.282h.294v-.059l-.294-.047-.165.047.059-.047v-.118Zm1.093.059-.118.176h.118L33.4,15.2Zm6.114.176v.047h.106l.059-.165h-.059Zm-5.209.165V15.6l.059.059H34.5V15.6Zm.635,0,.118.294h.223V15.72q-.118,0-.118-.176Zm-1.834.118L33,15.838h.059l.235-.118v-.059H33.18l-.059-.059Zm1.552.176-.059.047v.059h.106L34.615,16v.059h.223v-.176Zm2-.059h.059v.459l-.059.047v.059l-.176-.059Q36.508,15.779,36.614,15.779Zm1.54.223-.059.059v.118l.176.059V16.12Zm-1.881.341q.341,0,.341.294l.059.165h-.059l-.459.059V16.8l-.176-.223-.059.059h-.059V16.52ZM57.648.564l-.27.071q-.165,0-.447-.423h-.059V0h.435l.341.094Zm0,1.964-.106.317h.106v.517H57.5l.047-.353V2.951H57.5l-.188.412h-.67V3.21h-.118q0,.153-.106.153h-2.7q0-.2-.4-.2l-.059.047-.106-.153V2.9q0-.106.282-.106V2.74q-.282,0-.282-.153V2.328l.106-.106h.235q0,.153.118.153l.282-.047-.059-.059V2.222l-.059.047H53.6l-.118-.106V2a.472.472,0,0,1,.494-.259h.071l.059.165.329-.106q0,.2.282.2v.423h.235V2.74L55,2.8v.047q.176,0,.176-.212l.341-.047-.047-.059V2.481l-.059.047h-.129l-.165-.153-.059-.212H54.9l.059-.059V2L54.615,1.9l.106-.212h-.106V1.164h.223l.282.047q0-.153.106-.153h.247l.047.153q-.4.094-.4.435h.059a.465.465,0,0,1,.388-.27l.118.094-.059.059V1.8h.341q.118,0,.118.153H56.2q0-.306.317-.306l-.047-.059V1.529l.106-.47-.059-.047h.118q0,.153.118.153h.176V1.058h-.118l.059-.27V.694h-.059V.788h-.106l-.071-.2h.294V.741h.223l.059-.047h.047a.344.344,0,0,0,.341.2v.165l-.165.153-.129-.094-.317.094v.106h.223v.059L57.1,1.47l-.059-.047H56.99v.106l.106.317h.118a1.065,1.065,0,0,1,.388-.682h.047ZM57.1,2.163,57.037,2.1H56.99l-.176.165.059.059v.094q0,.259-.235.259v.165h.071A1.411,1.411,0,0,0,57.1,2.163Zm-.459.741v.2l.118-.094ZM56.707,0V.106l-.294.059L56.026.106,56.143,0Zm-.071,2.328h-.118q0,.094-.212.094v.106l.27-.153h.059Zm-.118-1.8q0,.118-.553.317V.894l.282.059q0-.165.118-.165l.047.27-.165.259v.059h-.165l-.118-.106V1.011a.5.5,0,0,1-.4-.165V.894L55.52.847h-.047L55.12.952,55,.788l.176-.153V.588L55.061.482a.453.453,0,0,0-.506.364H54.5l.059.047V.952l-.118.106H54.05q0-.27-.118-.27h-.047a.367.367,0,0,0-.223.376q.317,0,.317.106h-.047l.047.153h.071q.118,0,.118-.153l.047-.059h.176l.165.106q0,.423-.388.423,0-.094-.282-.094V1.529h-.176q-.529.694-.623.694t-.106.259l-.059.047h-.282l-.282-.047v.047l.106.27-.059.047h.118q.118,0,.118-.212.118,0,.118.27h.059l-.129.306h.071l.223.059v.094H51.675l-.388-.047-.506.047H47.054a.79.79,0,0,1-.459-.2H46.49l.047.047v.153H46.49l-.059-.047-.27.047h-.729l-.353-.306V2.8l.118-.165.047.047h.188L45.3,2.375H45.2V2.058h.235l.094.212v.059h.059l.118-.106V2.163q-.153,0-.341-.317l.071-.317q.376.059.376.165v.259q.165,0,.165.27l.353.2h.047v-.2h.341v.2l-.282.317v.106h.059q0-.259.341-.259h.059q0,.212.282.317v.047h-.118v.106h.165l.459-.106V2.845l-.353-.165-.106.118-.447-.576.059-.165h-.059q-.259,0-.341-.412a.419.419,0,0,0,.282-.329h.176l.118.106V1.47l-.059.27.059-.047h.047l.329.106v-.27l-.059.059h-.106V1.423l.235-.106h.059V1.27q-.4,0-.4-.106V1.058l.059-.165h-.059L46.772.788l.059-.047V.694L46.713.588q0,.364-.223.364l-.27.059L46.161.588,46.1.635h-.4q0,.317-.118.317h-.341V.635q0-.094.341-.153,0-.376.118-.376h.4V.212h.059q0-.212.106-.212h1l.353.376V0h.059l.165.106h.176L48.183,0h3.327q.106,0,.106.165h.059q0-.165.118-.165h1.246l.106.106V.165l-.059.047V.259h.059L53.427,0h2.2V.106L55.52.212V.165l-.176.047V.329h.282q.106,0,.106.306h.059l.118-.376h.118l.059.071h.059L56.2.259A.5.5,0,0,0,56.519.529Zm-.27,2h-.165v.106l.165-.047Zm-.282.106q-.294,0-.341-.153l.059-.212L55.626,1.9h-.153l.153.729.106.106h.118ZM54.838.259,54.673.212l-.059.047V.329l.165.106.059-.059Zm-.223,2.693-.118.106v.106h.059L54.72,3.1V3.057Zm-.118-.47h-.059l-.165.047V2.74h.118l.106-.212ZM54.05.435,53.98.376h-.153l.153.153L54.05.482ZM52.686.741V.894h-.047L52.58.635h-.118V.741H52.24l-.282.047L51.852.482H51.9l-.047-.27h-.059l-.059.047h-.059l.118.529h-.118V.894h.412v.27l.212-.047.165.047v.364l-.165.165-.059-.047h-.106l-.118.094h.176v.106l-.235.212H51.9L51.852,2l-.059.059h-.059L51.452,2V2.1l.447.059-.047.059v.106H51.9q0-.106.294-.106.024-.27.165-.27l.459.212V2h-.129V1.846l.071-.047V1.74l.282.059h.047V1.693l-.329-.047.059-.059V1.529l-.176-.059V1.117H52.4V.894h.118v.118h.059l.176-.059v.059q0,.118.388.2v-.2Zm-.729.47q-.282,0-.282-.094l.059-.165a.6.6,0,0,1-.388.106v.106q0,.094.27.153l.059-.047.118.2h-.118v.059H51.9ZM51.9,2.845h-.223q0,.082.223.165Zm-.329-.259h-.059l-.118.094h.176ZM51.346.329h-.118L51.17.482l.059.047h.282V.482ZM51,2.222H50.84v.047l.047.153H51Zm-.165.517h-.059l-.4.059v.153q.27,0,.27.259A.452.452,0,0,0,51,2.9ZM50.652.529h-.106l-.165.165L50.5.952h.047l.106-.106L50.593.588Zm-.106,1.317h-.106v.212l.153.165h.059V2.163Zm-.27.835-.235-.047V2.74h.235ZM49.982.435,49.923.376h-.059V.435h.059l-.059.047V.588h.059Zm-.118.2h-.047l-.165.153H49.7Zm0,1.529h-.106l-.059.317h-.047a.693.693,0,0,1-.4-.153h-.059v.094q0,.106.235.106l.059.317h.27Zm-.27-1.046h-.047v.2h.106V1.27ZM49.312.259h-.118V.376L49.135.329h-.059l-.165.047V.329L48.853.165h-.047V.329a.69.69,0,0,1,.388.682h.118L49.194.529l.118-.094Zm0,2.8-.059-.047h-.176q0,.153-.223.153v.153a.754.754,0,0,1,.4-.212V3.21h.059ZM48.348.529h-.223l.341.259.059-.047ZM48.242,2.9q-.282,0-.282-.27H47.9l-.059.423h.341Zm-.4-2.269-.106.106.047.153h.059ZM47.678.482h-.059l-.106.106V.635h.106l.059-.047Zm-.353.153h-.059l-.094.106.094.106ZM46.6.376a.145.145,0,0,1-.165-.165l-.106.118L46.267.259h-.106v.27h.059A.6.6,0,0,1,46.6.435Zm-.27.941h-.294l-.106-.106.341-.094.059.047ZM45.749,2.9H45.7v.047q.047.317.165.317h.059V3.057ZM45.3.106l-.059.059H45.2L45.079.059,45.138,0H45.2Zm4.209,16.719v-5.9l.176-.282-.059-.176v-.059l.059-.071h-.176V9.876l.118-.129h.176l.071.071q0-.647.235-.647l-.059-.247.118-.106h.423V8.7q.235,0,.235-.118h-.482l-.294-.071v.071l-.364.118h-.059l-.118-.118V6.349h.118v.282h.118l.129-.341.294-.118.059-.059h-.176l-.176.118h-.247l-.118-.118V5.7l.059-.059q.176,0,.176-.188l-.235-.341V4.586h.118V4.292l-.118-.176V4.056l.118-.118h.247v.118h-.129v.059h.364V3.939h.717v.294h.059l.364-.294h.294q.118,0,.118.176h.364q0-.176.118-.176h.423l.118.118.176-.118h.364l.118.118v.47h-.176q0-.235-.364-.235h-.059l.059.176-.294.353v.059l.353-.294h.129l.176.176v.059l-.059.294q-.364.082-.364.176V5.35l.364-.176q.118,0,.118-.294h.118V6.526l-.176-.059-.118.106q.176,0,.294.247V9.406h-.118V9.171h-.306l.423.459v.705a.5.5,0,0,1-.423.306q0,.106.188.106v.306l-.118.118h-.364v-.364q0-.118.176-.118l-.118-.165a.581.581,0,0,1-.482.282v.118h-.353l-.059.059.118.188.176-.118h.306q.118,0,.118.341.235,0,.235.247l.306-.188h.294v5.373Zm3.41-3.139.129-.353-.059-.176h-.129v.529Zm.247-1.4.059-.306-.235-.059v.059l.118.306Zm-3.057-.364V11.64h-.118v.282Zm1.681-.282a.929.929,0,0,1,.658.282l.059-.059q-.071-.176-.6-.353Zm-.964,0v-.247l-.118.118v.129Zm-1.2-.247q.482-.082.482-.223h-.176Zm1.564-.118.059-.165v-.059h-.188v.223Zm2.034.059-.059-.059.059-.412v-.118h.118v.588Zm-1.8-.87q.082.282.176.282a.626.626,0,0,1,.306-.529V9.994l-.6.412v.059Zm-1.623-.059a.58.58,0,0,1,.364.176h.059l.176-.306-.176-.176H50.17a.479.479,0,0,1-.364.235Zm1.14.176q0-.118.188-.118v-.059H51v-.071l.059-.282q.364-.118.364-.235V9.747l-.235.071h-.059l-.071-.071q0-.235-.118-.235V9.171h-.059l-.059.294-.294-.059h-.059l-.129.106v.059l.129.306h.176l.294.059v.118l-.176.165.059.364Zm2.281-.306V10.1h-.364v.118Zm-.658-.529h.059V9.63q-.423-.118-.423-.341h-.176v.223l.176-.047Zm-3-.235-.059-.047V8.924h.118q0,.176.247.306a.308.308,0,0,1-.306.341ZM52.686,9.1q0-.082-.235-.176v.118Zm-1.317-.059.059-.165h-.059l-.059-.059h-.176Zm.541-.223.059-.059a.156.156,0,0,1,.176-.176V8.454q-.412.212-.412.306v.059Zm-.964-.529q0,.106.658.165A.542.542,0,0,1,51.311,8h-.118q0,.235-.247.235Zm1.317.047V8.289l.071-.059h-.247v.059Zm-2.152-.047A.625.625,0,0,0,50.476,8h-.188a.26.26,0,0,1-.294-.294h-.059q0,.165-.188.165v.188l.059.059.188-.059Q50.111,8.054,50.111,8.289ZM52.2,7.466q0,.235.541.4V7.643q-.459,0-.482-.235H52.2Zm-1.493.282h.118l-.118-.106h-.118Zm2.457-.223-.059-.247h-.188l.071.247ZM51,6.937V6.878L50.946,6.7H50.77q0,.118.176.118v.118ZM50.476,6.7h.176l-.118-.129h-.188Zm.835-1.058V5.526q-.176,0-.176-.118H51v.047Zm.353,0q.129-.024.247-.294l-.059-.294h-.306v.059q.247,0,.247.176v.118l-.129.176Zm-.952-.235-.118-.118h-.059v.118Zm.482-.588V4.7H51l-.118.118Zm-.6-.235.059-.235-.176-.059-.129.176Zm1.8-.118V4.35H52.2v.118ZM65.22,0l.059.059V2.845q0,.129-1.376.235.059-.212.4-.294l.235.059h.106V2.74h-.623v.106h-.4l.059.282q-.858.611-.858.976l-.047.282v.341q0,1.164,2.9,1.658l.047.047-.047.059v.118l.223-.176a17.161,17.161,0,0,1,4.209,1.317l1.035.858v.047H70.97V8.548q-.223,0-.223-.235h-.235l.4.341.059.341h-.118v.118h.059l.176-.059-.176.4h.517q0,.176.165.176a.815.815,0,0,0,.235.447q.282.106.282.517l-.176.118h-.564q0,.106-.282.223h-.4v.118a.58.58,0,0,1,.4.118q0-.118.223-.118l.176-.176q.071.294.165.294l.059-.059.059.059q.012-.4.341-.4l.059.047v.4l-.059.059q0,.118-.341.118,0,.282-.118.282-.223,0-.223.282H70.97v.059l.059.282h.059v-.106l-.059-.059.459-.176h.282v.118h.118l.223-.118v-.341h.118a8.125,8.125,0,0,1-.235,1.658l-.059-.059h-.106v.059h.106q-.071.682-.341.682l-.165-.059v.118l.223.059a2.124,2.124,0,0,1-.447.682l-.059-.059h-.059a.623.623,0,0,1-.341.564l-.059-.047h-.059l.118-.4-.635-.517h.118v-.059l-.118-.118-.282.059v-.506q0-.141.235-.176v-.059q0-.129-.459-.165l.118.165v.4h-.059l-.176-.059.118.176v.118l-.235.223-.047-.059-.059.059h-.118l-.059-.059H69.03q0-.4.341-.4V13.78l-.341-.223h-.341l.059.059v.059l-.118.106q-.412,0-.447-.165l.059-.059-.118-.118q0-.223.459-.223l.047-.059V13.1a.349.349,0,0,1-.341-.282,2,2,0,0,0,.235-1.023l.282.059q.118-.294.223-.294v-.047l-.106-.118h-.176l-.165.118h-.059l-.4-.517v-.059h.059l.4.059q0-.176.223-.176V10.77l.059.047h.223l.118-.106v-.118a.519.519,0,0,1-.459-.223h-.165l-.176.106h-.858l-.165-.106-.223.059q-.4-.141-.4-.235v-.059q.129,0,.341-.223a1.145,1.145,0,0,0-.741-.282v.059l-.341-.118-.059.059-.576-.682a.445.445,0,0,1-.447.341q0,.188-.4.282v.118H64.3q-5.232-.882-5.232-4.738V4.727Q59.071.764,64.2.059ZM65.9,0a7.2,7.2,0,0,1,4.386,1.423q.917.941.917,1.258.294,0,.729,2.222v.165L70.005,5.3V5.244l-1.6.165a2.806,2.806,0,0,0-.8-1.822,3.885,3.885,0,0,0-1.764-.623V2.845L65.9,2.5l-.059-.564V.118L65.9.059Zm1.423.459V.517L67.5.564V.459Zm1.2.4.223-.176h-.059Zm-6.843.4.118.106h.059l.118-.106V1.14Zm-1.646.905.118.118H60.2V2.163Zm9.971,0v.118h-.341v.106h.282l.282-.047.118.165.165-.059V2.281l-.106-.118Zm-8.489.118v.106q.282,0,.282.118h.118l-.176-.223Zm7.748.459v.106h.223V2.74Zm2.1.788v.294l.176.106V3.868l-.118-.341ZM61.74,5.75v.059l.682.118-.388-.235Zm1.141.4v.118h.176V6.149Zm2.622.576v.059l.059.282q-.118,0-.223.341h-.294l.059.223-.059.176a1.14,1.14,0,0,0,.576-.858V6.725Zm-5.244.165.176.176.059-.176-.059-.059Zm.8.059v.223l.118.118V6.949Zm.623.564-.047.059v.059h.282V7.572Zm1.6,0-.059.059v.059h.235V7.572Zm3.3.4h.223V7.807H66.7Zm-5.926-.047.118.106h.118V7.866Zm9.065.106.106.282-.223.118-.059-.059h-.176l-.106.118v.059l.106.165v.235l-.106.223h-.282l-.176-.118V9.23h-.4v.059l.282.106.176-.165h.059l.165.118a.307.307,0,0,1,.341-.235v.282h-.165v.176l.223.223.118-.106v-.4l.118-.118h.047l.176.059v-.4h-.4V8.771l.059-.282h.059l.282.059q0-.235.118-.235A.6.6,0,0,0,69.723,7.972Zm-4.844.118v.282h.059V8.089Zm2.328.223L67.1,8.43v.118h.165V8.313Zm-2.61.459-.459-.118.223.341H64.6q0-.141.223-.165V8.712l.165-.106-.047-.176Zm5.467-.059-.059.176h.165V8.712Zm1.14.059h.047a.369.369,0,0,1,.235.341H71.2l-.118-.118V8.889Zm-4.444.118-.059.059v.047h.165Zm3.645.223V9.23l.341-.059V9.112Zm-5.068.118H65.5l.176.165v.176H65.62l-.282-.118Zm4.774.118v.106l.235.059V9.394Zm.353.223.106.118h.059l-.118-.118Zm-5.42,0h.4l.176.165v.294q-1.082-.2-1.082-.341h.506Zm3.139.223-.059.176h.118l.106-.118-.059-.059Zm1.481.059q0,.282-.294.282v.176h.059l.517-.4Zm1.082.176v.106l.223.059h.176v-.059A.625.625,0,0,1,70.746,10.029Zm-.635.341v.106h.294l-.118-.106Zm.118.682v.118h-.282a1.676,1.676,0,0,1-.682.165l-.059-.059v.118h.517q0,.341.106.341h.118l-.118-.176v-.047l.118-.118h.4l.165.118v-.235l-.047-.059V11.17l.106-.118Zm-8.089.118.059.047v.059l-.118.176v.059q.235,0,.235.564a2.967,2.967,0,0,0,.564.917v.047l-.059-.047h-.047V13.1h.047l.059-.059a5.178,5.178,0,0,0,1.6.694V13.9H64.6V13.78h.341q.341.035.341.176v.459q0,.106-.176.106l-.059-.047h-.106v.047a.256.256,0,0,1,.223.294l-.176.282q.176,0,.176.118v.106L65.1,15.6l-.059-.047h-.059l-.047.047v.235a.341.341,0,0,1,.341.223V16.4q0,.118-.235.118l.176.223-.118.118H64.82q0-.129-.4-.459V16.3H64.08v.047h.165v.294H63.8q-.294-.459-.4-.459l-.059.059V16.3q.165,0,.165.341h-.047l-.235.047A5.423,5.423,0,0,1,61,15.9q.094-.4.294-.4V15.32a.852.852,0,0,0-.517.282h-.223a4.768,4.768,0,0,1-1.775-2.61l-.106-.694.106-.106v-.059l-.047.059h-.059a1.847,1.847,0,0,1-.118-.741l.118-.118h.059l.047.059.059-.059h.176l.341.059.341-.118h.8v.176h.059q.024-.235.165-.235H61.74Zm-1.305.341.106.106.118-.106v-.118H60.94Zm10.312-.118v.118H71.2l.106-.118Zm-.517.223.118.235.165-.235Zm-11.852.059v.4h.059q0-.118.176-.118v-.047l-.118-.235Zm1.2.059-.059.059v.118h.176v-.059Zm1.6.118v.106q.223,0,.223.235h.176v-.118l-.118-.118H61.8l.059-.047v-.176h-.176Zm-2.1.223h.282v-.118h-.176Zm10.417.118V12.3h.282v-.341q-.106,0-.106.235Zm-9.112,0,.118.106h.165L61,12.075Zm8.207-.118.106.118h.059l-.118-.118Zm-8.724.118v.223h.118v-.223Zm8.266.223v.059q0,.165.4.165,0,.235.106.235h.118l.118-.118-.635-.341Zm1.646,0v.223h.118v-.223Zm-10.817.223h.165v-.106h-.047Zm11.334-.106v.106l.118.118h.047v-.223Zm-.964.106V12.7q0,.106.341.294v-.235q-.294,0-.294-.118Zm1.129.176v.223h.059l.118-.106Zm-1.481.176V13.1l.235.118h.059V13.1ZM61.4,13.1v.118l.118.223h.118v-.106l-.118-.235Zm8.948.118v.059l.165.059v-.118Zm-10.77.223V13.5h.118v-.165Zm10.594.576v.059h.118v.047l.282-.223a.249.249,0,0,0,.282-.282h.059q0-.176-.223-.176v-.106h-.059q-.118,0-.118.564Zm-9.618-.459.047.341h.118v-.059l-.059-.282Zm1.587,0q0,.176-.165.176v.106l.282-.282Zm5.244-.059a1.04,1.04,0,0,1,.682.282q.564,0,.564.4l.176.059.059-.059.118.176-.059.059v.059q.341.27.341.447h.106q0-.235.459-.282l.059.059-.059.059v.106l.059.059q-.024.294-.165.294v.223q0,.282-.294.282,0,.129.294.176v-.059l.047-.059h.059v-.4h.118V15.32l-.059-.059q.035-.282.4-.282.094.4.223.4v.059a3.51,3.51,0,0,1-1.822.905v-.106l-.623.106V16.3l.059-.176h-.059l-.165.059v.059l.106.165v.118q0,.247-2.1.341l-.059-.059V16.12l.059-.059V16l.282.059H66.3q.118,0,.118-.282l.165-.176V15.5h-.059l-.059.059h-.047a1.477,1.477,0,0,0-.235-.694l.059-.165-.4-.341v-.341q0-.129.282-.176l.294.059q0-.223.564-.223v.341h-.564l.165.341h.059v-.118H67.1l-.059-.059v-.059h.118l.165.118.059-.059.059.341h.106v-.165l-.047-.282.047-.059q-.165,0-.223-.282H67.16v-.059Zm.459.459.059.165.106-.106v-.176h-.059Zm-5.244.059q0,.106.223.106l-.047.059v.059l.223.118V14.3l-.176-.282Zm2.1.282v.176h.176v-.059l-.118-.118Zm3.363.176v.106h.282l-.106-.106Zm2.622,0v.106h.165v-.106Zm-.682.047h.223v.235l-.165.059-.059-.059Zm-7.807.294h.059l.059-.059h.059l.165.165H62.6v-.059l-.059-.165h-.223Zm3.645-.176h.118l.059.176-.059.165h-.118Zm-4.9.223v.059h.235l-.059-.059v-.047Zm3.022,0v.059l.118.118h.059l.165-.059v-.059l-.282-.059Zm-.623.059V15.1l.223.165h.118v-.223h-.059l-.059.059q-.165,0-.165-.176Zm2.681.176.282.059V15.6h-.341l-.118-.106v-.282Q65.843,15.1,66.02,15.1Zm2.963.059q0,.165-.176.165v.059h.223l.059-.223Zm-.635.059V15.5l.4-.059v-.059q-.282,0-.282-.165Zm-6.09.047.118.118h.047l-.106-.118Zm4.9.118q.082.223.165.223h.118v-.047l-.176-.176Zm-4.444.223-.059.059v.176l.059-.059h.059l.223.059Zm1.881.235v.223l.106.118.059-.059h.118v.118h.059V16.12Zm4.15.223h.341v-.118l-.106-.106h-.059ZM61.8,15.9v.047q.4,0,.4.353h.118v-.118l.059-.059-.059-.059-.459-.165Zm2,.047v.235H63.9v-.118Zm2.728.294v.282l.282-.118Q66.807,16.273,66.525,16.237Zm-.341.4v.047l.4.059-.059-.165Zm-2.446,0v.047l-.059.059V16.8l-.176-.059v-.059Zm.223.106H64.2v.118h-.059l-.176-.059Z" transform="translate(12.033 19.444) rotate(-10)" fill="#f05893"/>
      </g>
    </g>
  </g>
</svg>
