<svg xmlns="http://www.w3.org/2000/svg" xmlns:xlink="http://www.w3.org/1999/xlink" width="96" height="96" viewBox="0 0 96 96">
  <defs>
    <clipPath id="clip-Rankings_96">
      <rect width="96" height="96"/>
    </clipPath>
  </defs>
  <g id="Rankings_96" data-name="Rankings 96" clip-path="url(#clip-Rankings_96)">
    <rect width="96" height="96" fill="#fff"/>
    <g id="Group_27" data-name="Group 27" transform="translate(-91.003 -338)">
      <ellipse id="Ellipse_14" data-name="Ellipse 14" cx="16" cy="16.5" rx="16" ry="16.5" transform="translate(123.003 396)" fill="#f9f000"/>
      <g id="Ranking" transform="translate(93.63 338.183)">
        <g id="Group_6" data-name="Group 6">
          <path id="Icon_metro-medal" data-name="Icon metro-medal" d="M50.28,50.993a26.256,26.256,0,0,1,8.006,1.363L25.937,3.835a1.683,1.683,0,0,0-1.4-.751H5.608A.783.783,0,0,0,4.958,4.3L38.127,54.06A26.3,26.3,0,0,1,50.28,50.993ZM94.952,3.085H76.023a1.684,1.684,0,0,0-1.4.751L54.272,34.359l10.646,15.97L95.6,4.3a.784.784,0,0,0-.649-1.219ZM50.28,56.317a21.293,21.293,0,1,0,0,42.585c5.209,0,9.982-1.871,14.919-6.1,3.416-2.782,6.374-8.642,6.374-15.192A21.294,21.294,0,0,0,50.28,56.317ZM61.522,78.232a.7.7,0,0,1-.117,1.107.915.915,0,0,0-.261,1.219.706.706,0,0,1-.346,1.059.911.911,0,0,0-.506,1.139.706.706,0,0,1-.554.963.912.912,0,0,0-.729,1.006.7.7,0,0,1-.745.825.913.913,0,0,0-.926.83.71.71,0,0,1-.9.655.914.914,0,0,0-1.081.623.7.7,0,0,1-1.017.452.908.908,0,0,0-1.182.383.708.708,0,0,1-1.091.229.9.9,0,0,0-1.235.128.706.706,0,0,1-1.112,0,.9.9,0,0,0-1.235-.128.709.709,0,0,1-1.091-.229.91.91,0,0,0-1.182-.383A.707.707,0,0,1,45.2,87.66a.916.916,0,0,0-1.081-.623.7.7,0,0,1-.9-.655.909.909,0,0,0-.921-.836.705.705,0,0,1-.745-.825.912.912,0,0,0-.729-1.006.7.7,0,0,1-.554-.963.911.911,0,0,0-.506-1.139.712.712,0,0,1-.346-1.059.91.91,0,0,0-.261-1.219.707.707,0,0,1-.117-1.107.907.907,0,0,0,0-1.246.7.7,0,0,1,.117-1.107.915.915,0,0,0,.261-1.219.706.706,0,0,1,.346-1.059.911.911,0,0,0,.506-1.139.706.706,0,0,1,.554-.963.912.912,0,0,0,.729-1.006.7.7,0,0,1,.745-.825.914.914,0,0,0,.926-.83.71.71,0,0,1,.9-.655.914.914,0,0,0,1.081-.623.7.7,0,0,1,1.017-.452.908.908,0,0,0,1.182-.383.708.708,0,0,1,1.091-.229.9.9,0,0,0,1.235-.128.706.706,0,0,1,1.113,0,.9.9,0,0,0,1.235.128.709.709,0,0,1,1.091.229.91.91,0,0,0,1.182.383.707.707,0,0,1,1.017.452.916.916,0,0,0,1.081.623.7.7,0,0,1,.9.655.906.906,0,0,0,.926.83.705.705,0,0,1,.745.825.912.912,0,0,0,.729,1.006.7.7,0,0,1,.554.963A.911.911,0,0,0,60.8,73.6a.712.712,0,0,1,.346,1.059.91.91,0,0,0,.261,1.219.707.707,0,0,1,.117,1.107.919.919,0,0,0-.005,1.251Z" transform="translate(-4.824 -3.085)" fill="#119eb9"/>
        </g>
      </g>
    </g>
  </g>
</svg>
