<svg xmlns="http://www.w3.org/2000/svg" xmlns:xlink="http://www.w3.org/1999/xlink" width="96" height="96" viewBox="0 0 96 96">
  <defs>
    <clipPath id="clip-Wages_96">
      <rect width="96" height="96"/>
    </clipPath>
  </defs>
  <g id="Wages_96" data-name="Wages 96" clip-path="url(#clip-Wages_96)">
    <rect width="96" height="96" fill="#fff"/>
    <g id="Group_23" data-name="Group 23" transform="translate(-222.829 -379.053)">
      <path id="Subtraction_12" data-name="Subtraction 12" d="M54.162,66.662H44.132V57.727L50,56.694v5.8h2.6a1.564,1.564,0,0,1,1.562,1.562v2.6ZM20.831,54.318H0V3.125A3.128,3.128,0,0,1,3.125,0H46.871A3.128,3.128,0,0,1,50,3.125v9.2A20.418,20.418,0,0,0,37.5,25.39v-3a1.564,1.564,0,0,0-1.562-1.562H30.727a1.564,1.564,0,0,0-1.562,1.562V27.6a1.564,1.564,0,0,0,1.562,1.562h5.208a1.561,1.561,0,0,0,.792-.215,20.649,20.649,0,0,0-.156,2.53c0,.679.034,1.364.1,2.036a1.564,1.564,0,0,0-.737-.184H30.727a1.564,1.564,0,0,0-1.562,1.562V40.1a1.564,1.564,0,0,0,1.562,1.562h5.208A1.564,1.564,0,0,0,37.5,40.1V37.568a20.434,20.434,0,0,0,8.379,11.015,27.56,27.56,0,0,0-11.645,2.788,10.13,10.13,0,0,0-3.587,2.944h-1.48V51.558A1.564,1.564,0,0,0,27.6,50H22.394a1.564,1.564,0,0,0-1.562,1.562v2.758ZM14.061,33.33A1.564,1.564,0,0,0,12.5,34.893V40.1a1.564,1.564,0,0,0,1.562,1.562h5.208A1.564,1.564,0,0,0,20.831,40.1V34.893a1.564,1.564,0,0,0-1.562-1.562Zm0-12.5A1.564,1.564,0,0,0,12.5,22.394V27.6a1.564,1.564,0,0,0,1.562,1.562h5.208A1.564,1.564,0,0,0,20.831,27.6V22.394a1.564,1.564,0,0,0-1.562-1.562Zm16.665-12.5A1.564,1.564,0,0,0,29.164,9.9V15.1a1.564,1.564,0,0,0,1.562,1.562h5.208A1.564,1.564,0,0,0,37.5,15.1V9.9a1.564,1.564,0,0,0-1.562-1.562Zm-16.665,0A1.564,1.564,0,0,0,12.5,9.9V15.1a1.564,1.564,0,0,0,1.562,1.562h5.208A1.564,1.564,0,0,0,20.831,15.1V9.9a1.564,1.564,0,0,0-1.562-1.562Z" transform="translate(233.186 384)" fill="#1d9db9"/>
      <g id="Group_26" data-name="Group 26" transform="translate(222.829 398.813)">
        <path id="Subtraction_13" data-name="Subtraction 13" d="M42.716,66.663H7.458V39.5H0a17.537,17.537,0,0,1,8.138-2h2.175a22.671,22.671,0,0,0,18.98,0h2.175A17.519,17.519,0,0,1,48.969,55v5.418A6.258,6.258,0,0,1,42.716,66.663ZM19.8,33.331A16.666,16.666,0,1,1,36.467,16.666,16.683,16.683,0,0,1,19.8,33.331Z" transform="translate(47.031)" fill="#1d9db9"/>
        <rect id="Rectangle_40" data-name="Rectangle 40" width="50" height="27" transform="translate(0 44.239)" fill="#269cb9"/>
        <path id="Icon_metro-dollar2" data-name="Icon metro-dollar2" d="M19.566,14.406a3.918,3.918,0,0,1-1.025,2.713,4.422,4.422,0,0,1-2.662,1.406v1.8a.317.317,0,0,1-.33.33h-1.39a.334.334,0,0,1-.33-.33v-1.8a6.491,6.491,0,0,1-1.313-.319,6.324,6.324,0,0,1-1.807-.953,5.869,5.869,0,0,1-.479-.386q-.129-.124-.18-.185a.313.313,0,0,1-.021-.422l1.061-1.39a.32.32,0,0,1,.237-.124.255.255,0,0,1,.247.093l.021.021a5.377,5.377,0,0,0,2.5,1.287,3.6,3.6,0,0,0,.762.082,2.5,2.5,0,0,0,1.467-.443,1.442,1.442,0,0,0,.633-1.256,1.044,1.044,0,0,0-.154-.546,1.929,1.929,0,0,0-.345-.433,2.826,2.826,0,0,0-.6-.386q-.412-.211-.68-.33t-.824-.335q-.4-.165-.633-.257t-.633-.273q-.4-.18-.644-.319t-.582-.366a3.626,3.626,0,0,1-.551-.438,6.418,6.418,0,0,1-.448-.5,2.519,2.519,0,0,1-.366-.6,4.13,4.13,0,0,1-.216-.685,3.574,3.574,0,0,1-.088-.8A3.521,3.521,0,0,1,11.2,5.766a4.712,4.712,0,0,1,2.626-1.38V2.533a.334.334,0,0,1,.33-.33h1.39a.317.317,0,0,1,.33.33V4.345a5.728,5.728,0,0,1,1.138.237,6.6,6.6,0,0,1,.9.345,4.961,4.961,0,0,1,.654.386q.309.216.4.3t.154.144a.3.3,0,0,1,.051.391l-.834,1.5a.28.28,0,0,1-.237.165.328.328,0,0,1-.278-.072q-.031-.031-.149-.124t-.4-.273a5.314,5.314,0,0,0-.6-.33A4.6,4.6,0,0,0,15.9,6.75a3.436,3.436,0,0,0-.88-.118,2.676,2.676,0,0,0-1.6.443,1.384,1.384,0,0,0-.53,1.637,1.159,1.159,0,0,0,.3.427,4.537,4.537,0,0,0,.407.34,3.627,3.627,0,0,0,.577.319q.386.18.623.278t.721.283q.546.206.834.324t.783.36a6.221,6.221,0,0,1,.777.438,6.575,6.575,0,0,1,.638.515,2.666,2.666,0,0,1,.546.654,3.732,3.732,0,0,1,.324.788,3.4,3.4,0,0,1,.134.968Z" transform="translate(11.194 46.006)" fill="#f8f300"/>
      </g>
    </g>
  </g>
</svg>
