<?xml version="1.0" encoding="utf-8"?>
<!-- Generator: Adobe Illustrator 22.0.0, SVG Export Plug-In . SVG Version: 6.00 Build 0)  -->
<svg version="1.1" id="Layer_1" xmlns="http://www.w3.org/2000/svg" xmlns:xlink="http://www.w3.org/1999/xlink" x="0px" y="0px"
	 viewBox="0 0 96 96" style="enable-background:new 0 0 96 96;" xml:space="preserve">
<style type="text/css">
	.st0{clip-path:url(#SVGID_2_);}
	.st1{fill:#FFFFFF;}
	.st2{clip-path:url(#SVGID_4_);}
	.st3{fill:#8C8C8C;}
	.st4{fill:#7C7C7C;}
	.st5{fill:#DADADA;}
</style>
<g>
	<defs>
		<rect id="SVGID_1_" width="96" height="96"/>
	</defs>
	<clipPath id="SVGID_2_">
		<use xlink:href="#SVGID_1_"  style="overflow:visible;"/>
	</clipPath>
	<g class="st0">
		<rect class="st1" width="96" height="96"/>
		<g id="Category_96">
			<defs>
				<path id="SVGID_3_" d="M89.8,60h-20L34.9,95c-0.4,0.4-0.8,0.7-1.3,1h56.2c3.3,0,6-2.7,6-6V66C95.8,62.7,93.1,60,89.8,60z
					 M81.5,31.3l-16.9-17c-2.3-2.3-6.1-2.3-8.5,0c0,0,0,0,0,0L41.9,28.5V78c0,0.6-0.1,1.1-0.2,1.6l39.7-39.8
					C83.8,37.5,83.8,33.7,81.5,31.3z M35.9,6c0-3.3-2.7-6-6-6H6C2.7,0,0,2.7,0,6v72c0,9.9,8,18,18,18s18-8,18-18V6z M18,82.5
					c-2.5,0-4.5-2-4.5-4.5c0-2.5,2-4.5,4.5-4.5c2.5,0,4.5,2,4.5,4.5c0,0,0,0,0,0C22.5,80.5,20.4,82.5,18,82.5z M24,48H12V36h12
					L24,48L24,48z M24,24H12V12h12L24,24L24,24z"/>
			</defs>
			<clipPath id="SVGID_4_">
				<use xlink:href="#SVGID_3_"  style="overflow:visible;"/>
			</clipPath>
			<g id="Mask_Group_19" transform="translate(0 0)" class="st2">
				<path id="Icon_awesome-swatchbook-2" class="st3" d="M89.8,60h-20L34.9,95c-0.4,0.4-0.8,0.7-1.3,1h56.2c3.3,0,6-2.7,6-6V66
					C95.8,62.7,93.1,60,89.8,60z M81.5,31.3l-16.9-17c-2.3-2.3-6.1-2.3-8.5,0c0,0,0,0,0,0L41.9,28.5V78c0,0.6-0.1,1.1-0.2,1.6
					l39.7-39.8C83.8,37.5,83.8,33.7,81.5,31.3z M35.9,6c0-3.3-2.7-6-6-6H6C2.7,0,0,2.7,0,6v72c0,9.9,8,18,18,18s18-8,18-18V6z
					 M18,82.5c-2.5,0-4.5-2-4.5-4.5c0-2.5,2-4.5,4.5-4.5c2.5,0,4.5,2,4.5,4.5c0,0,0,0,0,0C22.5,80.5,20.4,82.5,18,82.5z M24,48H12
					V36h12L24,48L24,48z M24,24H12V12h12L24,24L24,24z"/>
				<path id="Path_20" class="st4" d="M40.1,11.2l-1.8,71.7l52.5-46.9L72.1,0.5L40.1,11.2z"/>
				<path id="Path_21" class="st5" d="M98.5,52.7L67,58.1l-42.7,43.5h80.3L98.5,52.7z"/>
			</g>
		</g>
	</g>
</g>
</svg>
