<?xml version="1.0" encoding="utf-8"?>
<!-- Generator: Adobe Illustrator 22.0.0, SVG Export Plug-In . SVG Version: 6.00 Build 0)  -->
<svg version="1.1" id="Layer_1" xmlns="http://www.w3.org/2000/svg" xmlns:xlink="http://www.w3.org/1999/xlink" x="0px" y="0px"
	 viewBox="0 0 96 96" style="enable-background:new 0 0 96 96;" xml:space="preserve">
<style type="text/css">
	.st0{clip-path:url(#SVGID_2_);}
	.st1{fill:#FFFFFF;}
	.st2{fill:none;}
	.st3{fill:#787878;}
	.st4{fill:none;stroke:#828282;stroke-width:8;stroke-linecap:round;stroke-linejoin:round;}
</style>
<g>
	<defs>
		<rect id="SVGID_1_" width="96" height="96"/>
	</defs>
	<clipPath id="SVGID_2_">
		<use xlink:href="#SVGID_1_"  style="overflow:visible;"/>
	</clipPath>
	<g id="Time_96" class="st0">
		<rect class="st1" width="96" height="96"/>
		<g id="Icon_feather-clock" transform="translate(-3 -3)">
			<g id="Path_1" transform="translate(0 0)">
				<path class="st2" d="M99,51c0,26.5-21.5,48-48,48S3,77.5,3,51S24.5,3,51,3S99,24.5,99,51z"/>
				<path class="st3" d="M51,91c22.1,0,40-17.9,40-40S73.1,11,51,11S11,28.9,11,51S28.9,91,51,91 M51,99C24.5,99,3,77.5,3,51
					S24.5,3,51,3s48,21.5,48,48S77.5,99,51,99z M99,51C99,51,99,51,99,51L99,51z"/>
			</g>
			<path id="Path_2" class="st4" d="M51,22.2V51l19.2,9.6"/>
		</g>
	</g>
</g>
</svg>
